<svg xmlns="http://www.w3.org/2000/svg" viewBox="0 0 4000 2500" width="4000" height="2500"><g transform="translate(3380.0 1619.0) rotate(0.0 222.0 164.5) scale(1.0008475646042594 1.000748279868838)"><svg width="443.624" height="328.754" viewBox="0 0 443.624 328.754"><path d="M357.878 173.682h-45.569a5 5 0 0 1-4.963-5.607l5.117-41.807a5 5 0 0 1 4.963-4.393h40.452c18.714 0 33.938-15.225 33.938-33.938v-2.191c0-18.714-15.225-33.938-33.938-33.938H327.23a5 5 0 0 1-4.963-5.607l3.776-30.865a4.704 4.704 0 0 0-1.163-3.733 4.698 4.698 0 0 0-3.562-1.602 5 5 0 1 1 0-10h36.56c47.28 0 85.745 38.465 85.745 85.745v2.191c.001 47.28-38.464 85.745-85.745 85.745zm-39.92-10h39.92c41.766 0 75.745-33.979 75.745-75.745v-2.191c0-41.766-33.979-75.745-75.745-75.745h-22.59c.708 2.081.952 4.317.682 6.546l-3.091 25.261h24.999c24.228 0 43.938 19.711 43.938 43.938v2.191c0 24.228-19.711 43.938-43.938 43.938h-36.026z" fill="#e9d9bb"/><path d="m286.59 74.458-14.344 119.957c-3.157 26.382-15.916 49.505-34.541 66.041-18.611 16.521-43.09 26.454-69.659 26.454-53.152 0-97.9-39.731-104.215-92.495L49.486 74.458z" fill="#fcae1d"/><g fill="#e9d9bb"><path d="M250.15 328.754H85.928c-27.134 0-50.083-20.31-53.38-47.244L.111 16.549A14.76 14.76 0 0 1 14.757 0h306.564c4.224 0 8.251 1.814 11.05 4.976a14.765 14.765 0 0 1 3.597 11.572L303.531 281.51c-3.297 26.934-26.246 47.244-53.381 47.244zM14.757 10c-1.381 0-2.646.57-3.562 1.604s-1.327 2.359-1.159 3.73l32.438 264.962c2.685 21.925 21.365 38.459 43.454 38.459H250.15c22.089 0 40.771-16.534 43.455-38.459l32.438-264.962c.168-1.371-.244-2.696-1.159-3.73S322.703 10 321.322 10z"/><path d="M168.045 291.91c-55.632 0-102.568-41.658-109.18-96.9L36.217 5.594a4.997 4.997 0 0 1 1.226-3.913A4.997 4.997 0 0 1 41.182 0h253.712a5 5 0 0 1 4.965 5.594L277.21 195.009a109.885 109.885 0 0 1-36.187 69.186 109.822 109.822 0 0 1-72.978 27.715zM46.816 10l21.979 183.821c6.01 50.218 48.678 88.088 99.25 88.088a99.835 99.835 0 0 0 66.34-25.193 99.897 99.897 0 0 0 32.896-62.895L289.26 10z"/></g></svg></g><g transform="translate(132.0 1938.0) rotate(0.0 1799.0 5.0) scale(0.9897111847816639 1.0)"><svg width="3635.404" height="10" viewBox="0 0 3635.404 10"><path d="M3630.404 10H5c-2.762 0-5-2.238-5-5s2.238-5 5-5h3625.404c2.762 0 5 2.238 5 5s-2.238 5-5 5z"/></svg></g><g transform="translate(574.0 147.0) rotate(0.0 494.5 796.0) scale(0.9921222085904341 0.9921587055071039)"><svg width="996.853" height="1604.582" viewBox="0 0 996.853 1604.582"><path d="M47.5 1597.082h901.853c22.091 0 40-17.909 40-40V47.5c0-22.091-17.909-40-40-40H47.5c-22.091 0-40 17.909-40 40v1509.582c0 22.091 17.909 40 40 40z" fill="#576cc0"/><path d="M119.033 1308.845h517.311v20H119.033zm0 76.638H566.94v20H119.033zm0 76.638H566.94v20H119.033zm0 76.638h517.311v20H119.033z" fill="#91a0e2"/><g fill="#f796af"><path d="M882.138 1241.382H689.609a5 5 0 0 1-5-5v-192.529a5 5 0 0 1 5-5h192.529a5 5 0 0 1 5 5v192.529a5 5 0 0 1-5 5zm-187.529-10h182.529v-182.529H694.609zm-397.592 10H104.488a5 5 0 0 1-5-5v-192.529a5 5 0 0 1 5-5h192.529a5 5 0 0 1 5 5v192.529a5 5 0 0 1-5 5zm-187.529-10h182.529v-182.529H109.488z"/><path d="m100.944 1047.383 7.071-7.071 192.528 192.528-7.071 7.07z"/><path d="M100.932 1232.856 293.46 1040.33l7.071 7.07-192.528 192.528zm488.645 8.526H397.048a5 5 0 0 1-5-5v-192.529a5 5 0 0 1 5-5h192.529a5 5 0 0 1 5 5v192.529a5 5 0 0 1-5 5zm-187.529-10h182.529v-182.529H402.048z"/><path d="m393.503 1047.385 7.07-7.071 192.529 192.527-7.071 7.071z"/><path d="m393.495 1232.862 192.528-192.528 7.07 7.07-192.527 192.529z"/></g><path d="M148.254 855.241h690.118v20H148.254zm733.88-130.609c-.8 0-1.611-.192-2.364-.598L102.12 305.715a5 5 0 0 1 4.737-8.807l777.65 418.319a5 5 0 0 1-2.373 9.405z" fill="#91a0e2"/><path d="M104.492 724.632a5 5 0 0 1-2.373-9.404l777.65-418.319a5 5 0 0 1 4.737 8.807l-777.65 418.319a4.98 4.98 0 0 1-2.364.597z" fill="#91a0e2"/><path d="M882.138 724.631h-777.65a5 5 0 0 1-5-5V301.313a5 5 0 0 1 5-5h777.65a5 5 0 0 1 5 5v418.319a5 5 0 0 1-5 4.999zm-772.65-10h767.65V306.313h-767.65z" fill="#91a0e2"/><path d="m686.06 1047.387 7.072-7.071 192.528 192.528-7.071 7.07z" fill="#f796af"/><path d="m686.057 1232.868 192.527-192.528 7.071 7.07-192.527 192.529z" fill="#f796af"/><path d="M989.347 49.785v134.463H7.498V49.785a42.061 42.061 0 0 1 9.355-26.512c7.749-9.62 19.62-15.772 32.929-15.772h897.282c23.361 0 42.283 18.933 42.283 42.284z" fill="#fff"/><path d="M949.353 1604.582H47.5c-26.191 0-47.5-21.308-47.5-47.5V47.5C0 21.308 21.309 0 47.5 0h901.853c26.191 0 47.5 21.308 47.5 47.5v1509.582c-.001 26.191-21.309 47.5-47.5 47.5zM47.5 15C29.58 15 15 29.579 15 47.5v1509.582c0 17.921 14.58 32.5 32.5 32.5h901.853c17.92 0 32.5-14.579 32.5-32.5V47.5c0-17.921-14.579-32.5-32.5-32.5z" fill="#91a0e2"/><path d="M679.163 139.528c-24.07 0-43.653-19.583-43.653-43.653s19.583-43.653 43.653-43.653 43.653 19.583 43.653 43.653-19.583 43.653-43.653 43.653zm0-77.306c-18.557 0-33.653 15.097-33.653 33.653s15.097 33.653 33.653 33.653 33.653-15.097 33.653-33.653-15.097-33.653-33.653-33.653z" fill="#ef4a6b"/><path d="M784.873 139.528c-24.07 0-43.653-19.583-43.653-43.653s19.583-43.653 43.653-43.653 43.653 19.583 43.653 43.653-19.583 43.653-43.653 43.653zm0-77.306c-18.557 0-33.653 15.097-33.653 33.653s15.097 33.653 33.653 33.653 33.653-15.097 33.653-33.653-15.097-33.653-33.653-33.653z" fill="#fcae1d"/><path d="M890.583 139.528c-24.07 0-43.653-19.583-43.653-43.653s19.583-43.653 43.653-43.653 43.653 19.583 43.653 43.653-19.583 43.653-43.653 43.653zm0-77.306c-18.557 0-33.653 15.097-33.653 33.653s15.097 33.653 33.653 33.653 33.653-15.097 33.653-33.653-15.097-33.653-33.653-33.653z" fill="#c0d625"/></svg></g><g transform="translate(1702.0 147.0) rotate(0.0 1005.5 894.0) scale(0.997961399587516 0.9978391313665261)"><svg width="2015.108" height="1791.872" viewBox="0 0 2015.108 1791.872"><path d="M816.938 1190.477h381.232v601.395H816.938z" fill="#91a0e2"/><path d="M1198.17 1258.65v65.149l-381.232-25.054v-40.095z"/><path d="M1967.608 1258.65H47.5c-22.091 0-40-17.909-40-40V47.5c0-22.091 17.909-40 40-40h1920.108c22.091 0 40 17.909 40 40v1171.15c0 22.091-17.909 40-40 40z" fill="#576cc0"/><path d="M13.181 185.749h1994.427v60H13.181z" fill="#c0d625"/><path d="M2007.609 49.785v134.463H7.504V49.785c0-23.351 18.922-42.284 42.284-42.284h1915.537c23.352 0 42.284 18.933 42.284 42.284z" fill="#fff"/><path d="M1967.608 1266.15H47.5c-26.191 0-47.5-21.308-47.5-47.5V47.5C0 21.308 21.309 0 47.5 0h1920.108c26.191 0 47.5 21.308 47.5 47.5v1171.15c0 26.192-21.309 47.5-47.5 47.5zM47.5 15C29.58 15 15 29.579 15 47.5v1171.15c0 17.921 14.58 32.5 32.5 32.5h1920.108c17.921 0 32.5-14.579 32.5-32.5V47.5c0-17.921-14.579-32.5-32.5-32.5z" fill="#91a0e2"/><path d="M1693.213 139.528c-24.07 0-43.653-19.583-43.653-43.653s19.583-43.653 43.653-43.653 43.653 19.583 43.653 43.653-19.582 43.653-43.653 43.653zm0-77.306c-18.557 0-33.653 15.097-33.653 33.653s15.097 33.653 33.653 33.653 33.653-15.097 33.653-33.653-15.096-33.653-33.653-33.653z" fill="#ef4a6b"/><path d="M1798.923 139.528c-24.07 0-43.653-19.583-43.653-43.653s19.583-43.653 43.653-43.653 43.653 19.583 43.653 43.653-19.582 43.653-43.653 43.653zm0-77.306c-18.557 0-33.653 15.097-33.653 33.653s15.097 33.653 33.653 33.653 33.653-15.097 33.653-33.653-15.096-33.653-33.653-33.653z" fill="#fcae1d"/><path d="M1904.633 139.528c-24.07 0-43.653-19.583-43.653-43.653s19.583-43.653 43.653-43.653 43.653 19.583 43.653 43.653-19.582 43.653-43.653 43.653zm0-77.306c-18.557 0-33.653 15.097-33.653 33.653s15.097 33.653 33.653 33.653 33.653-15.097 33.653-33.653-15.096-33.653-33.653-33.653z" fill="#c0d625"/><path d="M668.358 1748.754h678.391v43.118H668.358zM77.282 313.809h1059.959v881.053H77.282z" fill="#91a0e2"/><path d="M140.161 389.257h280.113v20H140.161z" fill="#f3ead9"/><path d="M140.161 478.027H304.81v20H140.161z" fill="#f796af"/><path d="M359.533 478.027h167.54v20h-167.54z" fill="#fdc93a"/><path d="M586.526 478.027h488.415v20H586.526z" fill="#d2e23d"/><path d="M195.505 566.796h167.581v20H195.505z" fill="#f796af"/><path d="M195.505 655.566h560.226v20H195.505z" fill="#d2e23d"/><path d="M814.715 655.566h263.229v20H814.715z" fill="#f3ead9"/><path d="M195.505 744.335H495.46v20H195.505z" fill="#f796af"/><path d="M541.838 744.335h213.893v20H541.838z" fill="#fdc93a"/><path d="M195.505 833.105h560.226v20H195.505z" fill="#f3ead9"/><path d="M193.675 921.875h185.973v20H193.675z" fill="#fdc93a"/><path d="M430.118 921.875h185.973v20H430.118z" fill="#d2e23d"/><path d="M240.193 1010.644H622.37v20H240.193zm427.936 0h295.253v20H668.129z" fill="#f3ead9"/><path d="M240.193 1099.414h240.23v20h-240.23z" fill="#d2e23d"/><path d="M541.838 1099.414h145.796v20H541.838z" fill="#fdc93a"/><path d="M77.282 813.105H1137.24v60H77.282z" fill="#d2e23d"/><path d="M1261.35 313.809h674.629v881.642H1261.35z" fill="#7584d7"/><path d="M1323.588 389.644h198.828v20h-198.828z" fill="#91a0e2"/><path d="M1323.588 478.473h158.758v20h-158.758z" fill="#f36a8d"/><g fill="#91a0e2"><path d="M1323.588 567.302h158.758v20h-158.758zm0 88.829h184.487v20h-184.487zm0 88.829h198.828v20h-198.828z"/></g><path d="M1323.588 833.789h198.828v20h-198.828zm0 88.828h151.35v20h-151.35z" fill="#dfeb77"/><path d="M1323.588 1011.446h118.211v20h-118.211z" fill="#fed975"/><path d="M1323.588 1100.275h118.211v20h-118.211z" fill="#91a0e2"/><path d="M1572.646 389.644h301.095v20h-301.095z" fill="#fed975"/><path d="M1613.042 478.473h260.698v20h-260.698zm0 88.829h260.698v20h-260.698z" fill="#91a0e2"/><path d="M1572.646 656.131h301.095v20h-301.095z" fill="#fed975"/><path d="M1688.96 744.96h184.78v20h-184.78z" fill="#91a0e2"/><path d="M1793.558 833.789h80.183v20h-80.183zm-220.912 88.828h301.095v20h-301.095z" fill="#f3ead9"/><path d="M1572.646 1011.446h301.095v20h-301.095z" fill="#91a0e2"/><path d="M1688.96 1100.275h184.78v20h-184.78z" fill="#f36a8d"/><path d="M1194.295 313.809h10v881.053h-10z" fill="#7584d7"/></svg></g><g transform="translate(2603.0 1698.0) rotate(0.0 283.0 125.0) scale(1.0786068058946052 1.0785811049847704)"><svg width="524.751" height="231.786" viewBox="0 0 524.751 231.786"><path d="M233.894 0h-81.28C61.806 0-7.461 81.227 6.883 170.895c5.378 33.621 34.383 58.356 68.432 58.356h333.399c51.339 0 96.543-33.817 111.038-83.067C453.466 54.382 347.125 0 233.894 0z"/><g fill="#576cc0"><path d="M387.933 231.787a5 5 0 0 1-4.849-6.235l20.172-79.234-36.244-116.754a5.002 5.002 0 0 1 9.551-2.965l36.661 118.102c.273.881.298 1.821.07 2.716l-20.52 80.602a5.003 5.003 0 0 1-4.841 3.768z"/><path d="M519.752 151.184H5a5 5 0 1 1 0-10h514.752a5 5 0 1 1 0 10z"/></g></svg></g><g transform="translate(242.0 488.0) rotate(0.0 1422.5 974.5) scale(1.0017958378816154 1.0016445677870285)"><svg width="2839.9" height="1945.8" viewBox="0 0 2839.9 1945.8"><path d="m1965.6 1589.3-239.4 151.4-1463.5-.3c-51.5 0-100.5-15-142.1-41.7s-75.6-65.2-97-112c-42.1-92.3-27.3-200.5 37.9-278.1l367.3-436.8c52.2-62.1 118-111.5 192.2-144.4 197-87.2 420-94.9 622.6-21.6l213.5 77.3c123.3 44.6 222.6 138.4 274.2 259z" fill="#d2e23d"/><path d="M2556.8 1135.1c62.4-48.5 105.4-44.1 132.8-24.3 10.1 7.3 40.2 29.6 40.2 29.6l-130.1 69.9z" fill="#e59673"/><path d="M2608.5 1164.2c62.4-48.5 104.1-42.1 132.8-24.3 10.2 6.3 21.4 19.3 27.2 27.8l-97.2 116.4z" fill="#e59673"/><path d="M2839.4 1274.3c-2.5 11.2-13.3 17.8-30.6 16.6-15-1-29-8.1-39.3-20l-31.5-36.1-48.8 12.7-39.9-38.8c7.6-8.7 15.2-16.1 22.5-22.3 45.3-38.3 107.7-27.8 138.5 23.1l22.2 36.6c6.4 10.8 8.5 20.6 6.9 28.2zm-64.8-195.8c-32 5.7-70.9 12.5-84.7 15.7-32.6 11.5-91.9 48.1-128.2 68.6-82.4 237.2-311.4 184.8-136.4-7 15.6-17.1 71.5-61.4 100.1-74.3 36.2-20.6 110.1-41.3 142.7-52.8 19-4.4 86.2-14.9 105.3-17.8 15.9-2.4 30.5 8.3 33.2 23.8 3.7 21.4-9.8 39.9-32 43.8z" fill="#e59673"/><path d="M2514.9 1088.3c-5.7 11.2-13.8 26.5-25.7 47-32.5 56-139 199.9-139 199.9-56.4-38.7-26.1-129.7-9.6-156.4 0 0 33.2-61.4 90-107.1 15.6-12.5 32.9-23.9 51.8-32.5 1.4-.6 2.8-1.1 4.2-1.5 7.8-2 16 .2 21.8 5.9 11.4 11.2 14.1 29.6 6.5 44.7z" fill="#e59673"/><path d="M2761.4 1231.8c-68.7 2.4-111.8 107.5-219.7 156.9-49.3 22.6-105.9 24.1-155.5 2.1-43.5-19.2-75.2-94-68.2-136.8 18.1-111.1 122.3-160.2 189.8-150.4 145.3-46.4 253.6 128.2 253.6 128.2z" fill="#e59673"/><path d="M2737.6 1243.2c-2.2 0-4.3-1.5-4.8-3.8-.7-2.7.9-5.4 3.6-6.1 7-1.8 14.9-3.6 21.2-5 3-.7 5.5-1.3 7.4-1.7 2.7-.6 5.4 1 6 3.7s-1 5.4-3.7 6c-1.9.5-4.5 1-7.5 1.7-6.2 1.4-14 3.2-20.9 5-.5.1-.9.2-1.3.2zm-74.2-51.5c-1.4 0-2.9-.6-3.9-1.8-1.7-2.1-1.4-5.3.7-7 4.8-3.9 9.6-7.5 14.5-10.7 28.1-18.7 63.3-22.1 94.1-9 2.5 1.1 3.7 4 2.6 6.6-1.1 2.5-4 3.7-6.6 2.6-27.7-11.8-59.3-8.7-84.7 8.1-4.6 3-9.2 6.5-13.7 10.2-.7.6-1.8 1-3 1zm-49.2-26.8c-1.5 0-3-.7-4-2-1.6-2.2-1.2-5.4 1-7 39.3-29 74.6-40.1 105.2-32.9 2.7.6 4.3 3.3 3.7 6s-3.3 4.3-6 3.7c-27.5-6.5-60.2 4-96.9 31.2-.9.7-1.9 1-3 1zm-43-30.2c-1.5 0-3-.7-4-2-1.6-2.2-1.2-5.4 1-7 39.3-29 74.6-40.1 105.2-32.9 2.7.6 4.3 3.3 3.7 6s-3.3 4.3-6 3.7c-27.5-6.5-60.2 4-96.9 31.2-.9.7-1.9 1-3 1z"/><path d="M2794.9 1016.1c-.8 2.9-2.6 5.5-5.6 7-7.8 4-18.6 7.4-31.7 9.2-17.7 2.4-26.9-6.4-28.1-14.5 4.6-.8 23.2-3.7 43.8-6.9 8-1.2 15.7.9 21.6 5.2z" fill="#e26847"/><path d="M2448.7 1135.7c-1.5 0-3-.7-4-2-1.6-2.2-1.2-5.3 1-7 24.1-17.9 47-33.3 68-46 2.4-1.4 5.4-.7 6.9 1.7 1.4 2.4.6 5.4-1.7 6.9-20.8 12.5-43.4 27.7-67.2 45.4-.9.7-1.9 1-3 1z"/><path d="M2485.1 1048.1c-5.1 7.1-13.2 15-24.2 22.4-13.6 9.3-25.1 6.9-30.4 1.1 15.6-12.5 32.9-23.9 51.8-32.5 1.4-.6 2.8-1.1 4.2-1.5 1.3 3.4 1 7.2-1.4 10.5z" fill="#e26847"/><path d="m1898 1431.3-.3-.8m2.3 5.5-1.5-3.6m3.1 7.2-.9-2m2.2 5.1-1.1-2.5m2.6 6.1-1-2.3m4.4 10.2-2.4-5.6" fill="none"/><path d="M1964 1585.5c-.3.2-.7.5-1.1.7-.5-1-.4-2 .1-3z" fill="#d2e23d"/><path clip-rule="evenodd" d="M1618.6 1717.6c1.3-.9 1.5 3.5 2 1.5-2.5-5.5-4.4-6.4-2.4-11.1-.4-2.2-2.4-2-3.4-3.1 1.1-2.3-3.9-7.8-.7-10.8-2.1 0-.3-2.9-2.4-3.9 2.1-.4 1.4-1.3.3-1.9 3.2-.8.2-3.4 2.1-4.6-2-.6-1.9-2.4-1.3-4.6-1-1.2-1.2 1-1.8-.3.8-3.1-2.8-7 .8-9.2-2.9-1.2-3.3-9.3-1.3-11.4-3.2.1-3.7-6.7-2.3-6.9-1.8-1.9-3.6-4-5.1-6.4.9.2 1.6.7 2.5.8-1.2-11-5.9-19.1-5.6-33.1-1 .2-1.5-.2-1.9-.9 3.6-4.7-5.7-12.9 1.1-14.2-.5-3-2 .1-3.2-1.9-.5-6.9-3.2-11.4-1.5-15.6-2.2-3.4-1.9-5.3-3.9-9.7 1.3-.4.9 1.6 2 1.5-1.3-5.6-3.2-8.4-1.1-13.2-2.6.7-2.4-2.8-4.5-2.9.3 3.3.9 7.3-1.9 9.4-1.5-2.4 1.5-4-.2-4.8-2.8 6.4 2 9 2.7 16-.8.1-1.3-.1-1.8-.3-.6 2.5 1.2 4.9 2.3 6.9-1.8 11.9 7 24.4 4.3 35.8 3.1 3.1 4 9.5 5.4 14.9-2.8-.5-1.8-6.7-4.7-7.1.4 2.5 3.1 11.4 1.3 13.2 1.1-.2 2-.2 2.2.9.7 1.5-.9 1.4-.7 2.6 3.3.6 3.2 10.6 3.5 14 .1-.5.4-.8 1-.8-.9 1.3 2.9 4.7 1.2 7.1-.1-1.4-.5-2.2-1.5-2.2-1.6 2.8 2.6 1.6 2.5 4.5-1.3.4-.9-1.6-2-1.5 1.6 4.9 1.8 14 3.6 18.2 1.9.4.1-2 2-1.6-.2.9 1.2 2.9-.1 3.1-.8 0-1.1-.8-1.9-.9 1.2 9.2 3.8 17.8 4.9 29-2.4 1.9 2 8.5 2 11.8 0 4.3 2.5 11 4 16.9h8.6c-2.3-7.8-3.3-15.9-5.1-23.2zm-30.8-152.4c-1.3.1-.8-2.5-.5-3 2.1.2 1 2 .5 3zm19.3 94.1c-.2-1.7-.6-3-1.7-3.4 0-.7 1.1-.6.9-1.4.4.8 1.6 3.2 2.6 5-.5-.1-1.1-.3-1.8-.2zm3.8 57.2c-2 .7-2.4-4.8-.1-4.2-1 1.7 1 3.2.1 4.2zm-.4 18.3c-.4 1.8-.8-.9-.2-1.2-1.6-.1-1.3.1-2.5-1.4 0 .9.6 2.2-.2 2.5-3.1-4.7-1.8-12.5-2.4-17.9-1.3-1.7-1.6 2.3-2.8.5 1.7-2.2-3.5-4.1-.9-5.3 1.5.3 1.9 5.9 4 3-1.9-2.6-5.9-3.9-4.2-7.8-5.4 1.4-4.2-7-7.3-9.1.9-1.6 1.9-5.8-.2-7.9.1 4.4-.5 8.2-3.5 10.3-.2-.7-.2-1.7-.9-1.7-.4 3.5 2.8 1.7 2.6 5 2.1-.3.3-3.6 2.2-4 1.1 4.7 2.1 8.9 1.5 12.5.2-2-2-.5-2.1-2.1.4-.6 1.1-3.6 0-3.6-3.1-.3-6.3-6.7-4.1-10.9-3.5-1.2-.8-5.2-1-5.9-.2 1.7-2.2-.1-2.5-.8 2.6-.4.9-6.3-1.1-2.9-.4-2.4.9-3.2 1.7-3.3-1.5-1.7-2.9-3.5-4.8-4.7 1.4-.2 1.9.8 2.1-1-1-1.3-1.2-.2-1.9-.9 0-.5.4-.8 1-.8-4.4-1.5.7-7.4-1.4-8.3 0 .7 0 1.4-.9 1.4-.2-2.7-.6-5.6 1.1-6.9-2.7-.5.6-2.2-.1-4.2-3.8-.2-5.9-10.2-2.8-9.9-1.7-1.8-3.7-2.7-2.1-5.7-3.1-.2 0 4.1-1.5 5.1-1.7-1.5-.9-6.5-2.5-8.1 1.3-1.7 2.2-3 4.1-3.1-.6-1.5-2.4-1.4-3.3-2.5 0 .7.4 1.7-.3 1.9-2.4-1.8-2.3-6.5 1.2-6.9-.3 1.5 2.8 1.5 2.4.8-2.5-.4-2.7-4.4-4.9-5.2-.4 2.8 1.9 1.5 1.8 4-1.6 1.1-2.4-.2-3.1 1.8-.3-3.6-.7-5.3-1.9-7.6 1.1-.2 1 1.5 2.4.8.2-2.3-2.1-.8-2.6-2 .5-1.2.4-2.8 1.8-3.3-3.8-4.5-2.8-8.3-4.3-15.1-2.6-.4.6 3.5-1.1 3.8-4.2-6.1-4.7-13.1-8.4-19.3.8 0 1.1.8 1.9.9-3.1-3.2-.7-6.2-3.4-6.7 1.3-9.1-4-27.9-2-36.2-.8-4.5-5.3-9.9-1.7-13.7-2.6-2-1.2-8.1-3.4-9.8 0 .9-.9.2-1.2-.4.8-9.8-5.3-13.5-5.3-24.7-2.8.8 2.1 7.4-2.3 7.1.6 5.9-1 8-.1 13.4-.2-.7-.2-1.7-.9-1.7 0 .5.2 1.2-.4 1.3-.1-2.8-1-4.5-2.6-5 1.2 4.2 2.6 9.6 1.1 13.8-2.7-.7-1.2-8.9-2.7-9.3-.4 3.8-1.2 7.3-.9 11.7-2.1-1.6.1 1.8-2 1.6-1.9-2.4-.8-4-1.5-5.8.2.7-1.3 2.2-1.6.8.4-2-.2-2-.7-4.1.7-.2 2.1 2.1 2.3.2-1.8-2.1-5-6-2.5-8.1-1.1 0-1.1.9-2.1 1-.2-1.5-.4-2.9-1.2-3.5.6-.1 1.1-.2 1.7-.3-1.7-3.4-3-4.9-5.1-6.4.2-2.1.1-9.4-2.3-10-.3 3.2 3.2 7.1-.1 9.8 1.6 8 2 17.6 3.8 22.5 1.1 3.1.3 8 1.2 10.7.9 2.8 3 6.9.4 9.1.9-2-1.6-3.9-.4-6-1-1.2-1.3 1-1.8-.3-1.3-29.8-18.1-59.9-21.3-92.6-5 1.1-4.5-8.4-3.7-11.5-3.4-1-.6-5.4-3.2-5.5-1 1.7 1 5.6-1.3 6.3-1-.2-3.2 1.3-3.5 0-2.2-7 1.7-11.9-1.3-15 .7 3.7-3 7.4-1.8 13.1-.2-.8-4.7-.1-2.8.5 3.8-1.3 1.1 2.6 3.5 3.7.2 2.1-1.2 2.9-2.9 3.5-2.7-1.4-3-6.4-5.4-8.2-2.3.5-2.9 2.6-1.6 4.5-2.9 9.8 4.9 24.3 5.2 34.4.2 1.2-1.4 1-.7 2.6 1.5 5.2 5.9 13.2 2.6 19 1.5 3.5 1.4 6.7 1.8 10.7 1.5 0 2.2 1.1 2.3 3.3-1.3-.8-.7.2-2.2.4-.5-1.5-.8-3.2-1.8-4-.7.9.5 3.1-1.8 2.7-.6-4-3.3-4.9-4.3-8.4 0 1.2-1.4 1.3-.6 3.1 3.6 2 4.4 8.3 9 8.8-.2 1.4-2.5 2.7-3.7 1.8-2.2 5 1.7 11.4.4 16.4-2.1.4-2.4-1.8-3.9-2.4.4 4.3-1.6-.4-2.9-.1 2.4 2.8 2.9 8.5 4.4 12.6-1.8 30.8 10.8 64 12.1 92.9 2.8 8.2 4.5 17.1 6.1 22.7 3.1 3 5.6 9.8 4.5 13.2 1.6 1.4 2.9 8.3 3.7 12-.4-.9-.6 1.8-1.3 2.2-1-4.9-.7-8.5-3.8-9.1.2-.7.4-1.4.8-2 .2.4.2 1.2.8 1.1.1-4-3.5 1.4-4.3-1.7 2.9-.9-1.3-4 2.8-4.1.6 1.8-.9 2.6 1.1 2.9-.6-5.3-2.3-10.2-3.3-12.8-1.7 2.4 1.7 6.1 1.5 8.9-.6.7-2 .9-2.6 1.7-.9 3.4 1.5 5.9-.9 8.1-3.2-7.8.8-6.7-.3-12.1.1.3-.3.7-.6.1-1.1-3.7-.5-5.6-2-8.8.6-1.5 3.5-6.1-.9-5.3.9 2.2 1.5 5.1-.7 6.2-.2 5.3 4.6 7.5 3 11.1-.6-2.5-1.8-4.2-3.7-4.9.1 2.6 2.6 1.5 2.5 4.5-.8 0-1.1-.8-1.9-.9 1.5 2.6 3.3 7.5.9 9-1.8-4.8-2.8-9.1-4.4-12.6.8-.1 2.1-.5 1-.8-.4.1-.7.1-1.1.2-1.6 5.7 3.5 7.3.2 11.5-.1-2.7-2.4-4.8-1.2-7.1-3.2-.5-4.7-6.2-4.5-9.6-2.6 8.8 5.2 14.1 7 21.3-1.9.9-2.7-3.8-4.2-1.1 4.6 7.6 1.3 19.5 2.8 26.9-3.2-6.7-5.1-12.7-4.9-18.6-.2-1.9-1.4 1.8-1.8-.3 1.2-5.1-2.2-14.5-4.8-21.7.8.1 1.1.6 1.7-.3-4.7-2.9-2.6-10.2-4.6-13.8-.1.5.2 1.2-.4 1.3-.2-9-2.1-20.8-6.5-28.7.7-.1 1.5-.3 2.2-.4-3.7-8.8-8.4-21.9-7.2-32.9-1.2.3-1.9-.2-2-1.5-2.7-25.5-13.2-53.7-15.4-77.7 0 .5-.2.8-.9.8 1.3-11.6-1.6-21-3.5-31.1.6-1.4 2.1-2.2 2.9-3.5-2.4.4-1.1 1.1-3.7 1.8 1.7-5 .5-11.4-1.6-16.2.6-.1 1.1-.2 1.7-.3-2.7-3.2-4.2-7.7-3.2-11.2-.3.3-.8.4-1.4.5-1-3-1.7-5.5.1-6.1-.8-1.5-.8-3.6.9-5-.9-2.2-2.7.5-3.6-.6-1.2-22.9-7.1-53.6-12.6-78.2 2.7 20.4 4.9 40.9 10.3 61.6-1.6.2 1.3 3.8-1.2 3.2 3.8 11.1 1.7 26.8 6.3 37.3-.6.2-1.6.2-1.6.9 2.1-.9 2.4.9 3.2 1.9-2.3 1.6.9 5.5-1.4 8.8 2.6.4 1.3 8 1 9.5.9.5 2.2.2 2.5 1.4-2 .7.7 2.9-1 4.4 2.8 1.3 1.8 4.7 3 7.4-3.3 1.1-1 4.4-.5 7.4 1 1.2 1.2-1 1.8.3 1.1 15.3 4.9 29.7 5.5 46.6-.2-.4-.2-1.2-.8-1.1-.1 1.9 1.7.9 1.6 2.8-1.5.2-1 1.2-2.2.4 1.6 2.6.9 6.5 1 9.6 1.9.4 1.2-1.1 2-1.6 0 1.5 1.2 1.1 1.1 2.9-1.1.2-1-1.5-2.4-.8-.3 2.9 2.2 1.7 1.9 4.5-2.7.1-.1 3.1-1.5 5.1 2.3.8 2.3 1.1 3.6.6-.2 1.7-.4 2.9 1.1 3.5-.6.1-1.1.2-1.7.3.7 1.1 3.6 5.4 1.1 6.5.3-2.7-3.2-4.7-1.4-8.3-4.5 1 2.8 11.5-1.1 14.2-2.9-13-3.6-23.2-5.6-36.8-1-.1-1.3 1.1-1.7.3.2-1.1-1.3-3.4 0-3.6 1.5.4-1 2.7 1.5 2.2-.2-3-1.6-8.5-2.2-10 .1 1.2-.9 4.1-2.5 2.3.9-10.9-3.1-23.3-4.3-32.7-1.8-13.6-2.7-27.5-4.2-42.5.4 0 .7-.1 1.1-.2-3.5-5.1-.5-10.6-4.2-14.5.2-1.7.5-3.4 2.2-4-.5-1 .1-3.6-1.2-3.5.7 2.6 0 4.1-2.1 4.6-.8-3.3-1.9-12.1-1.6-16.2-3-5.2-2.6-14-5.4-18.6-1.1 3.7 4 10.9-1.4 12.4.7-3.9-3.6-6.2-2.3-10.5-1.9.5-2.1-.9-1.7-3.4-5-2-1.9-11.8-5.6-16.1 1.1-1.6 1.5-3.7 1.9-5.8-1.9-.1-.4 2.3-2.1 1-.1 1.1 1.3 3.4 0 3.6-3.2-12.6-6.1-21.6-8.4-32.7-5.2 1-2.1-6.2-3.6-7.9-2.1 3.1-1.3-4.8-1.8-7-1.1-5.3-3.7-11-5.2-13.7-2.2 3.1 2 5.8 1 9.6-1.3 0-2.5-.2-3.1-1.3.9-.6-.6-4-2.3-3.3 1.3 3.2.7 5 .2 7.9-2.2-3.2-6.4-7.1-3.6-11.5-2.9-2.1-2.5-6.6-4.2-11.5-2.9 1.5-2.9-4.2-3.6-7.9-3-2.5-3.8.5-5.3-4-.9 1.7 1 2.6 0 3.6-2.8-.7-5.7-1.3-6.1-5.6.8 0 1.1.8 1.9.9-.8-3-2.9-6.3-4-6.6.9-2.9-.6-2.1-1.3-4-1.1-3.1.2-8.2-3.3-9.2-.9 2.4 1.7 5-1.3 6.3-1.9-2 .9-4.1-1.2-4-1.3 2 2 7.4-1 8.1l-.6-3.6c-1.7.2-1.1 3.4-3.2 1.8.5.8-.1 3.2 1.1 2.9-.3-1.3.1-2 1.4-2.1.3 1.5.5 4.8.6 7.2-4.1-3.6-5.6-13.5-6-18.5-1.1-.3-2.4-.4-3.1-1.3.4 2.7.8 5.5 1.5 2.2.6 2.2-.7 2.9-1.6 3.9-3.4-3.8.1-3.4-1.2-7.1-.1 2.2-.9 3.2-2.6 1.7-.2 5.4.1 12.5 1.6 16.2-3.8 2.7 3.1 11.9-2.9 13.9.2 2.4 3.4.4 3.4 3.1-.5 2-1.6 3.6-1.9 5.8 2.1 1.3 1.8 5-.1 6.1-.1-.8-1.1-.4-1.3-1 1.4-2.5-.1-8.5-1.8-10.6.7 4.3.3 10 2.3 13.6 0-.7-.4-1.7.3-1.9.1 1.8 1.6 1.6 1.7 3.4-1.2.6-2-1.4-1.6.9.7.7 1.7.9 2.1 2.1-1 4.1-.9 10.2 1.2 13.8-3.8 6.1 4.2 16.6-3.2 18.8 2.1 4.6 3.1 9.4 1.3 14.4.2 1.1 1.9.1 2 1.5-2.6 5.3 3.5 11.8 3 17.8-2.3 0-.4-6-2.9-3.8 3.6 8.1.2 15.7 1.4 22.3-1.3 0-1-2.5-2.7-2 .5 1.8.1 6 1.4 8.3-.7.3-.9 1-2.1 1 2 4.2.2 8.4-.1 13.4 1.4.6 1.9-1.9 2.2-.4l.6 3.6c-.9-.6-2.2-.4-2.1 1 1.8 4.9 1.3 11.4 4.4 15.7-2.4-1.4-.3 1.6-.3 1.9 0 .1-1.1.1-1.1.2-1.1 9.4 7.3 26.8 4.7 31.4 1.1-1.2 4 2 2.5 4.5-1.4.7-1.3-1-2.4-.8 3.4 14.2 4.7 30.1 7.8 46.8.1-.5-.2-1.2.4-1.3.6 8-.5 11.5 1.8 18 0 6.1 2.6 17 2.8 20.2.2-.6.6-3.6 1.4-2.1-2.6 7-1.6 12.4.1 21.3-2.6 1.1-1.6 7.5 1.2 7.1 0-2-.7-2.9-1.7-3.4.7-.9-.5-3.1 1.8-2.7.5 3 2.7 12.4-.4 8 3.6 8.8-.1 12.3 2.8 20.2-5.2 2.4 1.1 12.7-1.9 12.5 1.8 1.9 2 5.4.2 7.9-2.3-4.9-1.8-8.6-3.7-11.6.5 1.9.7 3.6-.4 4.3 2.3 2.3 2.5 5 1.3 7.7 2.5-.5.7 2.3.5 3 2 .4.1-2 2-1.6 1.6 3.7 1.5 8.6.4 12.7-.2-1.1-.7-1.9-1.5-2.2 1.4 3.2-1 7.4 2.4 7.5.1-1.3-1.3-3.8-.1-4.2 1.7 4.1 1.5 7.3.6 10.2-.1-.8-.6-4.3-.9-2.3-.1 2.9 1.3 3.5 2 5.1-3.1 6.7-.9 10.7-1.1 17.2 2.2.5 2.2 4.1 2.9 6.8-.8.1-1.2.5-1.6.9-1.4.4-.8-2.2-2.5-1.4.3 2.4 2.1 7.6.2 11.5 1.4 1.3 3.9 8.2.5 9.7-1.2-4.1-2.4-7.6-1.7-10.1-2-.3-1-12.4-4.1-10.9.7-.7 1.6-1.2 1.3-2.7-1-.7-2.1-2.4-4-3.6 4.1-.4-2.5-3.2 1-4.4.2-2-1.7-1-2.1-2.1.3-1.7 1.6-2.6 1.6-4.5-6.5-12.8-4.1-28.8-7.6-41.9 0 3.1.8 6.8-.9 8.7-.3-1 1.1-3.2-.6-3.5-.3 1.1.3 3-.5 3.7-1.5-3 1.1-5.7 0-6.7.3 3.5-2.1.2-2.2.4-.8 1.3 1.1 2.9-.9 5 1.1 0 1.1-.9 2.1-1 0 1.2-1.3 1.4-1.3 2.7 7.1 7.3 4 21 8.5 30.2-2.8 1-.9 2.8.4 2.4-.4 2.8-1.5 3.4-2.7 4.7 4.2 1.8 1.3 9.7 4.4 12.6-2.8 4.2 2.5 11.9 2.7 16 0-.5.3-.8 1-.8.6 2.1 1.4 3.2.2 4.8-1.6-1.2.7-1.2.1-3.1-3.1 4.6.5 10.5.7 16.5h1.4c-.3-1.4-.1-3.5-.2-5.2 2.3-.5.9 4.6 2.6 5v.2h110.5c-.2-2.4-.1-4.5.4-5.6-1-1.4-1.5-1.7-3-.7-.7-2.1-.4-3.4 1.1-3.8-3.2-1.8-1.5-5.8-.9-9-.4-2.1-1.6 1.6-1.8-.3-.3-1.5.3-.8 1-.8-.3-2.2-2.7-1.4-2.5-4.5 1.5.3 3.1.3 5.1-.3-.3-1.3-2.4.2-3.5 0-1-2.5 1.2-2.5 1-4.4-2.3 1.3-6.8-2-3-4.4.8 2-.2 2.6-.5 3.7 1.4-.3 1.5-1.4 2.8-.5-2-2.6-.7-3-.4-6-1.3 0-3.3-1.2-5 .9.5-2 .6-4.4 1.2-6.3 1.4-.2 1.4 1.8 1.7 3.4.3 1 1.9-1.2 2.6-1.6-.5-1.3-.8.9-1.8-.3 0-1.4.5-2.4-.1-4.2.9-1.2.7-.1 2.2-.4-2.3-3.5-5.8-1.1-6-5.1-.7.4-1 .9-.8 2-5.8-5.8-.7-16.4-5.3-21 .9-2.1 1.6-1.1.1-3.1 2.5-1.5 3.9.5 5.4 2.4 0-.7 0-1.3-.1-2 1.9.4 1.5 0 2.7-1.1-.9-1.9-2.9 2.1-4 .1 1.4-1.1-1.9-4.8-.2-7.9-.3-.8-1 .1-1 .8-1.6-.7 1.3-2.4.4-4.3-.4.5-.7 1.2-.8 2-1.7-.1.3-1.3-.4-2.4-.5.1-.3.8-.4 1.3-1.5 0-1-2.9-2.3-3.3 1-1.1 2.3-3.5-.1-4.3 1.2-8.2 0-16.7-1.3-24.7.6-.1 1.1-.2 1.7-.3-3.1-5.4-2.7-10.8-3.9-16.4 4.9 3.5 2.9 11.2 4.7 17.5.9 3.4 3.7 5.9 3.4 9.8-2.1.9-.9-3-2.3-3.3-.7.5.5 1.5-.1 3 6.7 5.1 4.7 17.1 6.6 25.7 1.6 7 5.1 12.7 5.3 18-.5.5-.3 1.5-1.5 1.5 1.9 1.8.4 4.5 1.2 7.1-1.7 1.1-1.5-.4-.7 2.5-1.3-.9-1.4.2-2.8.5-.7-1.5 1-1.3 1.4-2.1-1-.7-1.8-1.7-3.2-1.9.2-1.2 1.5-1.6 1.8-2.8-.4-1.2-1.7-.9-2.1-2.1-1.6 1.5.7 5.6-1.6 7.6 2.9 3.5 7.4 2.6 8.8 7.6 1.3-.6.9-2.4 1.1-3.8 3.5 3.9.9 8.8 4.2 11.5-.4.9-.2 2.3-1.3 2.7.7 1.6 3.5 4.9 1.6 5.8.2 1.1 1.9.1 2 1.5-3 4.5 3.5 11.7 1.6 16.2 2.3 1.9 3.3 6.7 3.3 9.9h123c-.5-2.6 1.6-5.5.5-6.6zm-159-164.8c-1.5.2-1.8-2.6-1.2-3.5 2.4-.5 1 2.6 1.2 3.5zm-107.2-271.5c-1.2-.2-1.1-3.6-.7-4.1 1.1-.2 1 1.5 2.4.8.6 1.8-.7 2.3.1 4.2-.7 0-.7-1-.9-1.7-.5 0-.8.3-.9.8zm.6 127.1c0-1 .1-3.4-.7-4.1.5-2.5 3.2 4.4.7 4.1zm1.3 18c0-3.1-1.3-4.4-2.2-6.3 1.1-.7 1.6 2.8 1.9.9.8.3 2.3 5.6.3 5.4zm19.7-126.2c.7 0 1-.3 1-.8 1.2.4 1.6 2.1 1.8 4-1.6-.1-1.9-2.1-2.8-3.2zm.2 320.7c2.7 1.5 1.6 4.1 3 7.4-1.6-1.3-3.9-4.8-3-7.4zm-6 77.7c-1.5-.8-1.1-4.6-1-5.9 1.8 1 .7 4.2 1 5.9zm6.8 16.5c0 1.4-.6 3.2.7 4.2-.4 1.5-4.2-4.1-.7-4.2zm3.1-15.8c-.7-1.7.2-2.2 0-3.6 1.3.2 2.5 3.6 0 3.6zm19.8-366.7c.1-2.5-.5-2.4-.9-5.3 1.4.4 3.8 5.2.9 5.3zm78.5 347.6c-1.7-.2-1.3 1.1-2.7 1.1-.2-1.6 1.3-1.8 1.8-2.7.7 0 .7 1 .9 1.6zm-.6-3.5c.3 1.7-2.9 1.9-3.8 1.2.1-2.3 2.1-.8 3.8-1.2zm-15.1-103.4c4.9 3.3 2.5 11.8 4.7 17.5-4.1-3.2-3.7-12.8-4.7-17.5zm21.6 98c-.1-.8-.2-1.6-.4-2.4 1.4-.4 2 .5 2.1 2.1-.5.1-1.1.2-1.7.3zm16.3 28.3c-2.2-.2-.8-2.3-1.3-4 2-.1 1.4 2.7 1.3 4zm58.5-187c-2.2-.5-1.3-3.7-1.3-4.6 1.7-.3 2 3.6 1.3 4.6zm50.1 178.4c-.1 1-1.7.8-.7 2.5-1.6.2-1.4-2.3-1.8-4 1.2 0 1.4 1.5 2.5 1.5zm-.8 12.3c-2.4-.5-1.7-5.6-1.9-7.6.7 2.5 2.2 4.5 1.9 7.6zm.2-5.6c1.4.1 2.7 1.9 1.7 3.4-.9-.8-2.4-2.2-1.7-3.4zm3 14.1c-1.2.3-.6-2.1-1.1-2.9-1.2.1.1 2.2-.1 3.1-2-1.3-.9-2.6-.8-4.7 1.5 1 2.6 2.5 2 4.5zm-8.6-89.2c.6.1 1 0 1.3-.2-.4 0-.9.1-1.3.2zm-156.4-192.2c.1-.1.1-.2.1-.4 0 .1 0 .2-.1.4z" fill="#c0d625" fill-rule="evenodd"/><path d="M2530.9 1455.8s-314.5 296.7-400 373.8c-95.3 86-183.2 116.6-275.3 116.3-60.4-.4-118-18.3-166.8-49.8-48.8-31.4-88.9-76.5-114.2-131.3l-215-464.5 368.4-169.5 135.9 348.5c5.6-3.4 22.3-13.3 42.9-25.7 25.5-15.3 57.2-34.2 82.1-49.1 9.9-5.9 126.9-75.9 184.3-109.7 12.1-7.1 30.3-19.1 53.2-30.3 15.4-7.5 32.9-14.6 52.1-19.6 34.1-9 73.5-11.3 115.8 2.7 131.3 43.3 136.6 208.2 136.6 208.2z" fill="#d2e23d"/><g clip-rule="evenodd" fill="#c0d625" fill-rule="evenodd"><path d="m1901.8 1440.2-.2-.5c.2 0 .4.1.6.2-.1.1-.3.2-.4.3zm321.9-167.1c-5 2.5-9.3 5.9-11.2 11.5-1 .8-1.7-1.3-2.7-.1-1.5 6.4-11.3 7.6-15 13.2 2 1.6 4.6-4.9 5.2-1.2-8.8 4.4-11.2 13.3-16.9 18.2 1.2.9 2.6-1.5 3.7.1-1.7 1.2-4.3 5.1-7 6.1.4.8.1 1.5 1.2 2.3-4.7 2.1-6.1 7-9.3 11.6-1.6-.5-.3-2.9-1.7-1.9-1 .9-2 1.8-3 2.6 1.2.1 2.2 1.2 1.2 2.3-5 3-9.1 8.8-14.8 10.4 3.1.4-.9 1.6-1.1 1.8-.1.1.9.9.8 1-5.6 8.9-25 17.9-26.1 23.7-.1-1.8-4.9-1.1-5.3 2.1.8 1.6 1.8.1 2.7 1-12.9 9.8-25.2 22.6-39.5 34.7.3-.5 1-.9.6-1.4-6.1 6.5-7.7 10.3-14.2 14.1-4.3 5.2-14.1 12.8-16.6 15.4.2-.7 2-3.5.3-2.7-2.7 7.8-7.4 11.8-15 18.2 1.4 2.7-3.9 7.5-6 5.3 1.4-1.7 2.7-2.1 3.8-1.7 0-1.2 2.6-2.3.3-3.7-2.5 2.3-11 8.8-5.3 7.2-9.3 5.1-8.5 10.7-16.6 15.4 2.8 5.7-9.9 10.1-7.1 12.1-2.9.4-5.5 3.2-5.7 6.7 5.4-2.6 7.6-6.1 11.2-7.4-1.8 1.3-3.1 2.6-2.7 4-3.6.4-5.6 2.6-6.5 5.7-1.8-2.2-2.3 1.5-2.5 2.2-2-1 1.3-1.8-.7-2.8-4 2.1-7.3 6.3-9.3 10.6 1-.7 1.9-1.1 2.8-.8-3.4 1.8-4.3 7.1-7.3 4.8.8-1.2 3.8-2.3 3.1-3.5-4.3 2.4-6.5 5.2-7.7 8.4.6-.6 3.6-3.3 2.4-1.3-1.9 2.5-3.6 2-5.3 3-2 7.9-6.7 9.9-11.1 15.6-2.2-1.1-4.8 2-7.3 3.8.6.7.7 1.3.7 1.9.9 1.4 2.3-1.3 3.2.6-1.9 1.9-7.1 5.1-8.3 9.8-1.6.1-5.7 2.4-7.1 5l-44.4-103.7c25.5-15.3 57.2-34.2 82.1-49.1 9.9-5.9 126.9-75.9 184.3-109.7 12.1-7.1 30.3-19.1 53.2-30.3-2.7 2.9-4.8 5.5-2.5 8.9zm-27.1 64.4c-1.2.1-2.8 2.2-3.5 3.1-2.4-1.5 4.7-5.5 3.5-3.1zm-13.2 13.3c-1.1 1.8 1.8-.8 2.2.5-2.1 1.1-4.1 1.2-6.3 3.9-1.8-1.3 3.2-4.7 4.1-4.4zM2018 1512.6c3.5-1.9 4.4-4.9 7.7-4.3-1 3-5.4 4.4-7.7 4.3zm-48.1 57.3c-1.2 1-.7 2.1-2.6 3.1-2.1-1.7 1.3-3.8 2.6-3.1z"/><path d="M1968.5 1418.5c5.8-3.4 9.8-12.4 16.3-11.8-4.2 3.4-10.5 11.9-16.3 11.8z"/></g><path d="m1236.4 355.1 8.7-72-22.7 8.2z" fill="#e59673"/><path d="M1199.2 227.1c74.8 128.9 52.8 281.3-49 340.3-62 35.9-139.2 29-207-10.9-43.7-25.7-83.4-65.1-112.7-115.6-14-24.2-24.6-49.2-32-74.2v-.1c-31.7-108.5-1.7-218 81-266 39.5-22.9 85.1-28.4 130.6-19.1 71.8 14.8 143.3 66.6 189.1 145.6z" fill="#e59673"/><ellipse cx="1041.6" cy="333.1" fill="#e59673" rx="189.2" ry="250.9" transform="matrix(.9405 -.3399 .3399 .9405 -51.199 373.8873)"/><path d="M1227.9 311.4c-2.1 29.4-13.7 32.9-26.8 26.7-19.2-9.1-41.5-39.3-41.5-39.3 3.4-46.1 15-53.1 27.8-45 19 12 40.5 57.6 40.5 57.6z" fill="#fff"/><path d="M1227.9 311.4c-2.1 29.4-13.7 32.9-26.8 26.7-6.9-7.2-12.9-16.8-16.9-28-8-22.1-6.2-44.1 3.2-56.4 19 12.1 40.5 57.7 40.5 57.7z"/><path d="M765.499 918.217 867.834 524.38l161.059 41.85-102.336 393.838z" fill="#e59673"/><path d="M1066.3 326.4c-6.4 21.1-21.4 60.3-31.3 91.3-33.5 102-133.3 145.4-176 125-44.3-21.1-105.1-83.4-123.7-214.7-52.8-31.2-77.8-97.4-80.5-163.2 15.6 25.2 47.3 41.9 67 46.1-18.8-34.2-27.4-115.8-14.3-174.5 30.7 28.7 69.1 48.5 103.7 59.3-16-15-29.8-39.6-33.4-70.2 49.5.5 100.8 21 123.1 43.1-3.8-17.9-17-42.8-37.7-68.7 63.1-1.5 191.2 24.7 251 110.2 0 0 17.3 29.8 18.4 31.7 12.1 47.4-17.8 152.7-66.3 184.6z"/><path d="M1090.1 402.7c-.2 12.8-39.5 51.9-78.9 8.2-18.1-20-52.8-74.8-10.6-103.9 42.1-29.1 66.4 20.9 66.4 20.9z" fill="#e59673"/><path d="M1074.9 374.1c-2.1.8-4.6 0-5.8-2-14.8-24.1-54.8-31.4-55.2-31.5-2.7-.5-4.4-3-4-5.7.5-2.7 3-4.4 5.6-4 .5.1 11.3 2 24.2 7.3 17.7 7.2 30.4 16.9 37.6 28.7 1.4 2.3.7 5.3-1.6 6.7-.1.2-.5.4-.8.5z"/><path d="M1042.4 393.9c-1.3.5-2.8.4-4.1-.3-2.3-1.3-3.2-4.3-1.9-6.7l18.4-32.7c1.3-2.3 4.3-3.2 6.6-1.8 2.3 1.3 3.2 4.3 1.9 6.7l-18.4 32.7c-.5.9-1.5 1.7-2.5 2.1zm139.8-173.8c-4.3 2.8-8.6 6-12.9 9.5-4.2 3.5-8.4 7.2-12.4 11s-7.9 7.8-11.7 11.8c-3.7 4.1-7.3 8.3-10.6 12.5l-.2.2c-2.2 2.7-6.1 3.2-8.8 1-2.1-1.7-2.9-4.5-2.1-7 2.1-6.2 5.3-11.8 8.9-17s7.8-9.9 12.3-14.3 9.3-8.4 14.6-11.9 11-6.6 17.6-8.5c3.6-1 7.4 1.1 8.4 4.7.8 2.9-.4 6-2.8 7.6zm50.7 217.2c-.6 0-1.2-.1-1.7-.3l-35.6-13.3c-2.6-1-3.9-3.8-2.9-6.4s3.8-3.9 6.4-2.9l35.6 13.3c2.6 1 3.9 3.8 2.9 6.4-.8 2-2.7 3.2-4.7 3.2z"/><path d="M1322.6 733.5c-353.1 343.2-763.5 265-799.2-7.4-38.1-290.8 481.5-245.3 799.2 7.4z" fill="#d2e23d"/><path d="M1965.6 1594.3c-1.9 0-3.8-1.1-4.6-3l-60.5-141.4c-1.1-2.5.1-5.5 2.6-6.6s5.5.1 6.6 2.6l60.5 141.4c1.1 2.5-.1 5.5-2.6 6.6-.6.3-1.3.4-2 .4zM835.7 966.8c-34.1 0-67-3.7-98.3-11.2-50.5-12.1-94.1-33.5-129.6-63.4-36.2-30.5-62.2-68.5-77.3-112.8-.9-2.6.5-5.5 3.1-6.3 2.6-.9 5.5.5 6.3 3.1 14.5 42.6 39.5 79 74.3 108.4 34.3 29 76.6 49.6 125.5 61.4 82 19.7 176.3 12.8 272.6-20.1 51.5-17.6 102.9-42.4 152.9-73.9 53.2-33.4 104.9-74.5 153.8-121.9 2-1.9 5.1-1.9 7.1.1s1.9 5.1-.1 7.1c-49.4 48-101.6 89.4-155.4 123.2-50.7 31.8-102.8 57-155 74.9-61.5 20.8-122.4 31.4-179.9 31.4zm739 803c-1.9 0-3.7-1.1-4.5-2.9l-215-464.5c-1.2-2.5-.1-5.5 2.4-6.6 2.5-1.2 5.5-.1 6.6 2.4l215 464.5c1.2 2.5.1 5.5-2.4 6.6-.7.3-1.4.5-2.1.5z"/><path clip-rule="evenodd" d="M1790.6 1420.8c.1.4.4.7 1 1-.4-.3-.7-.7-1-1zm239.1-68.1c-.1.1-.2.3-.1.4.1-.1.1-.2.1-.4z" fill="#c0d625" fill-rule="evenodd"/><path d="M519 1740.3c-2.3 0-4.4-1.6-4.9-4l-78.5-380.9c-23.2-112.6-25.4-227.2-6.4-340.6.5-2.7 3-4.6 5.8-4.1 2.7.5 4.6 3 4.1 5.8-18.8 112.2-16.7 225.5 6.3 336.9l78.5 380.9c.6 2.7-1.2 5.3-3.9 5.9-.4.1-.7.1-1 .1z"/></svg></g><g transform="translate(2652.0 973.0) rotate(0.0 123.0 109.5) scale(0.9714527167109612 0.972784250667401)"><svg width="253.229" height="225.127" viewBox="0 0 253.229 225.127"><g><path d="M221.32 65.237 12.15 5.227c-4.56-1.308-8.58 3.289-6.66 7.619l88.352 199.177c1.844 4.16 7.636 4.486 9.94.561l29.706-50.612c1.794-3.06 5.958-3.694 8.587-1.31l63.989 58.014a5.604 5.604 0 0 0 7.9-.376l32.811-36.006a5.57 5.57 0 0 0-.377-7.88l-64.606-58.575a5.57 5.57 0 0 1 .3-8.509l41.144-32.352c3.58-2.814 2.463-8.485-1.915-9.741" fill="#fff"/><path d="M209.82 225.12a10.56 10.56 0 0 1-7.114-2.738l-63.99-58.016a.582.582 0 0 0-.494-.147.57.57 0 0 0-.422.283l-29.706 50.613a10.558 10.558 0 0 1-9.742 5.212 10.547 10.547 0 0 1-9.081-6.278L.92 14.873C-.763 11.079-.115 6.778 2.61 3.648 5.342.51 9.527-.727 13.527.42L222.7 60.43a10.539 10.539 0 0 1 7.47 8.136 10.529 10.529 0 0 1-3.845 10.342L185.18 111.26a.552.552 0 0 0-.22.431.552.552 0 0 0 .188.444l64.606 58.574a10.504 10.504 0 0 1 3.46 7.327 10.506 10.506 0 0 1-2.744 7.624l-32.812 36.007a10.57 10.57 0 0 1-7.839 3.454zm-71.49-70.91c2.612 0 5.134.963 7.103 2.748l63.988 58.015a.6.6 0 0 0 .847-.04l32.81-36.006a.553.553 0 0 0 .148-.411.553.553 0 0 0-.189-.397l-64.605-58.574a10.554 10.554 0 0 1-3.467-8.203 10.557 10.557 0 0 1 4.034-7.941l41.144-32.353a.513.513 0 0 0 .212-.559.53.53 0 0 0-.414-.446L10.77 10.033a.541.541 0 0 0-.619.181c-.238.274-.14.497-.091.605l88.35 199.177c.045.099.146.327.51.348.369.022.495-.198.55-.291l29.704-50.611a10.549 10.549 0 0 1 7.534-5.107 10.696 10.696 0 0 1 1.622-.125z"/></g></svg></g><g transform="translate(365.0 1337.0) rotate(0.0 619.5 447.0) scale(1.0006477154703852 1.001103004988718)"><svg width="1238.198" height="893.015" viewBox="0 0 1238.198 893.015"><path d="M276.612 893.015c-39.971 0-74.802-27.232-84.442-66.026L111.7 503.175c-46.137-185.646 78.767-346.449 270.89-346.449h395.248c176.521 0 331.527 119.989 374.474 292.803l83.277 335.109c13.639 54.878-27.942 107.97-84.404 107.995l-874.535.383-.038-.001zM382.59 330.746c-78.12 0-121.048 53.841-102.007 130.46l64.056 257.76 695.242-.304-56.451-227.163a211.488 211.488 0 0 0-205.591-160.752H382.59z" fill="#ef4a6b"/><path d="m1133.5 784.633-83.282-335.106c-10.324-41.558-27.137-80.05-49.159-114.564-.9-1.42-1.811-2.829-2.735-4.227a385.24 385.24 0 0 0-71.584-81.257 378.525 378.525 0 0 0-3.978-3.363c-67.701-56.358-154.393-89.392-247.017-89.392H280.504c-.948 0-1.883 0-2.818.012l-2.723.035c-1.291.024-2.569.047-3.836.083-186.799 5.14-306.904 163.712-261.521 346.32l80.476 323.81c9.638 38.8 44.471 66.031 84.443 66.031h.035l655.945-.284h3.86l74.959-.036 76.806-.035h13.983l7.4-.012h16.338l25.243-.012c16.339-.012 31.423-4.452 44.293-12.112 31.613-18.79 49.811-56.89 40.113-95.891z" fill="#f36a8d"/><g clip-rule="evenodd" fill="#f796af" fill-rule="evenodd"><path d="M355.806 0c.474.592.983 1.208 1.445 1.8-.344-.521-.841-1.125-1.445-1.8zm613.901 759.106a5.208 5.208 0 0 1 1.421-.036c-.581-.438-1.102-.663-1.421.036zm1.622-.012c-.059-.012-.142-.012-.201-.024.154.118.296.249.461.379-.083-.118-.178-.236-.26-.355zm162.171 25.539-83.282-335.106c-10.324-41.558-27.137-80.05-49.159-114.564-.9-1.42-1.811-2.829-2.735-4.227a385.24 385.24 0 0 0-71.584-81.257 378.525 378.525 0 0 0-3.978-3.363c-67.701-56.358-154.393-89.392-247.017-89.392H505.214c14.208 14.812 28.593 26.712 42.648 40.777-.71.983-2.806-.415-1.468 1.539 8.359 6.95 56.228 37.047 39.936 39.108.698 1.042 2.202 2.237 1.527 3.007-1.456-1.184-3.114-3.28-4.156-2.57 2.356 4.677 11.154 8.738 16.292 12.977.154 2.155-.343 4.18.461 6.453 13.675 2.877 11.284 16.919 22.07 23.123-1.599 2.368-4.996-3.741-6.358-.26 17.783 5.15 32.323 29.943 50.852 43.819-1.586 2.428-5.695-6.973-6.784-2.143 13.936 9.495 33.614 33.98 50.545 46.495-5.742-1.053 3.185 5.198 1.61 7.578-15.001-4.665-21.193-19.832-38.669-28.878-.45 1.741-5.15 2.699-2.545 4.997 10.561-3.576 20.578 14.622 32.536 21.395-.663 1.693 2.96 4.179-.663 5.34 13.142 4.215 29.588 22.461 40.658 38.326 6.63-.071 10.668 11.461 18.601 15.202-3.587-1.278-6.086 2.664-10.17-.935.627-3.328 6.725.106 1.835-4.216-6.938 4.216-18.067-14.101-23.076-15.131 2.735 3.067-2.854-.189-2.972 3.102 6.939 2.676 9.141 9.282 15.901 11.082.272 4.594 6.832 15.297 6.891 8.051.876 7.566 12.148 12.775 12.645 20.069-11.828-12.775-19.761-13.722-29.209-22.614 2.818 7.957 7.293 9.472 12.219 14.966-.983 1.113-2.178 1.172-3.362 1.208 16.09 16.623 27.859 26.616 35.484 43.773 1.042-.746 1.882-2.415 3.351-1.208 4.25 10.36 19.193 22.342 27.042 29.469-1.314-1.456-2.474-2.877-.805-3.777 5.032 4.854 11.639 10.005 9.176 13.498 2.924 2.285 4.334-2.333 7.53 1.373 1.882 5.174.497 9.768 3.197 15.12-.675-6.524 19.867 10.55 9.543 10.833 6.63 7.483 12.716 8.987 13.746 17.973 3.469.639 6.784.698 10.549 2.818 6.334-8.157 9.567-6.666 14.457-12.823-7.66-4.309-12.988-7.743-10.336-14.61-3.244.817-12.29-8.264-12.539-12.29-12.456-2.759-16.801-19.82-30.062-30.95 4.227-3.09-2.924-4.63-2.001-9.46 4.405 3.729 8.596 6.488 12.882 9.626-3.931.805-2.676 3.185-2.155 6.891 3.765-.746 9.034 5.541 9.129 8.927 4.452-1.906-3.492-6.086-2.735-8.679 5.482 3.197 11.295 7.897 16.635 10.313-1.93 6.453 6.737 14.457 13.746 17.95.533 4.026.272 4.286-3.682 3.872 13.77 6.962 25.704 20.731 30.05 30.95 8.454-2.676 10.514 13.746 15.96 15.641-1.219-2.025-1.622-3.931-1.184-5.671 2.96 3.99 4.606 1.942 7.566 5.92-3.15 2.77 1.563 6.962 3.161 10.573 2.463-.368-.959-5.92 2.936-3.102 8.833 10.289 11.875 14.468 21.277 19.335-1.421 3.528-4.476 4.783 2.415 11.366 1.207-1.444 2.557-2.167 4.097-1.977a9.962 9.962 0 0 0-.213-.367c3.173 4.239 5.233 8.75 11.153 9.768-2.06 4.748-7.862-.852-11.615-4.084 7.116 7.601 3.493 20.305 11.876 17.641 9.507 12.929 14.089 23.585 23.395 37.899-1.338.864-3.114-.509-4.499.107 4.475 7.495 13.415 5.482 9.531 10.821-5.648-5.351-11.698-12.55-16.315-12.964 2.036 2.178 3.327 4.239 3.09 6.026-3.292-6.761-3.931 1.953-11.734-8.513-1.906 3.848-5.612-.9-7.885 1.29 1.551 3.919 6.595 8.478 6.169 12.053-11.023-6.441-15.949-12.349-17.914-20.566 2.072 1.208 5.032 6.689 6.453 4.819-6.702-5.754 6.63 1.184-.071-4.558-6.429-.154-10.573-4.002-15.842-6.524 5.304-.864-7.175-3.007-4.617-9.022-2.676-1.184-4.76.319-7.531-1.374-4.132-13.604-22.046-29.932-30.192-40.055.829 2.558 4.476 5.66 1.622 7.554-1.148-1.113-1.966-.698-3.031-1.456-.189-6.903-11.544-10.514-8.844-16.15-5.944-5.683-6.406-4.748-8.395-9.721-2.652.699-2.853 4.215-8.654-2.486 1.846-1.244 4.523 1.503 6.381.26-8.69-9.129-27.753-22.2-29.328-31.743-26.261-2.628-33.589-42.126-53.883-45.276.959-1.042-1.326-2.652-.805-3.777 2.522 3.362 4.405 3.706 5.648 1.03-6.003-5.434-5.517-5.564-12.207-14.965-2.403 5.932 7.021 14.018 7.033 20.376-3.825-.948-8.868-7.649-13.297-11.509-.687 3.706 9.508 13.817 12.61 16.848.154.142 3.007-1.894 4.499-.083 1.421 1.705.864 5.044 2.344 6.796 6.903 8.205 21.774 15.238 21.324 23.893-3.612-4.38-6.5-5.103-9.046-4.38 20.72 16.966 30.251 30.76 52.463 51.385-.734.793-1.8.047-2.605.45 9.093 5.517 14.457 16.434 26.166 21.122-1.338.853-3.137-.532-4.511.095 5.375 4.061 10.431 6.583 15.51 9.188-4.18-.486 1.35 6.299.119 9.105 1.409-1.871 3.291-1.527 5.647 1.042 1.457 3.587-3.244.474-1.077 3.457 6.748 4.819 13.77 10.964 20.081 13.651-1.29 1.48-8.359-3.102-5.991 1.634 11.011 3.007 24.816 27.398 30.855 34.726-2.463-4.238 5.92 1.019 5.304 3.683 3.362-.45-2.202-6.832 1.835-4.203-1.385 4.546 8.253 9.708 8.051 12.372-.864 4.5-4.334-3.327-5.66-1.018 2.948 6.299 7.069 12.811 12.267 19.512-13.924-7.116-29.15-33.827-49.716-42.706-.781 2.77 5.612 4.25 7.577 5.92-4.12 5.848 3.54 4.298 4.63 9.034-8.868 3.457-11.84-12.42-18.6-15.203 1.314 1.445 2.486 2.866.805 3.777-1.148-1.113-1.953-.686-3.019-1.456-6.654-7.483-16.564-22.698-21.276-19.335-5.222-5.837-4.535-15.345-11.13-18.399 4.571 7.199 8.419 14.267 7.033 20.388-1.125.983-8.655-7.577-6.039-2.936 10.68 5.636 13.391 9.093 21.608 16.683.343-2.072-5.766-5.305-2.344-6.785 3.22 3.612 9.697 7.827 7.649 10.491-4.5-2.013-2.167 5.719.059 4.535-2.415-3.718 3.683-1.907 5.245-.853-.876 1.362 2.084 3.41 3.824 5.245-1.374 1.255-2.06 2.652-1.823 4.203 3.457 3.564 6.37 4.393 9.472 6.275 10.419 18.459 38.586 30.192 50.272 46.141 4.902.758 8.761 8.288 10.455 5.849.592 2.013 5.588 9.389 7.246 8.596.592-2.025-5.47-5.234-4.227-7.14 1.078-.639 2.427.047 3.765.687.983 5.032 2.498 4.475 6.843 6.713.356 1.871.758 3.777 1.208 5.66 8.205 5.825 11.059 9.093 18.577 15.226-.958 1.113-2.155 1.172-3.339 1.208 3.777 2.178 6.571 4.878 7.222 8.596-4.109-2.403-7.945-3.386-11.662-3.954 6.192 3.658 13.462 12.361 18.529 10.644-1.61-2.451-6.903-2.38-5.719-5.577 4.191 2.711 8.229 4.689 12.077 5.849-1.469 1.231-.58 2.913 1.953 4.878-4.393-.521-2.77 5.553-1.752 8.786 3.469-2.084.367-5.388 2.901-7.661 4.653 5.837 2.344-.047 4.901 1.811 6.169 5.364 3.789 9.164 8.442 14.268-3.671 1.124-8.501-3.09-12.42-3.173 5.967 6.773 9.863 3.919 15.499 9.188-1.978 1.811-4.476.296-1.812 4.227 11.769 2.273 24.875 18.162 34.502 26.285.296-3.398-4.783-1.977-3.824-5.233 1.338-.829 3.351 1.563 4.913 1.799-1.184 2.499 2.818 5.967-1.018 7.98 3.386 1.326 6.156 3.422 8.797 5.92 31.613-18.791 49.811-56.891 40.113-95.892zM590.474 240.729c3.516.367.592-2.332 4.097-1.977 5.707 8.774 7.59 10.668 14.492 17.179-5.045.344-12.35-9.933-18.589-15.202zm20.127 18.222c1.681-3.883 7.353 4.475 7.577 5.92-2.379.557-6.997-2.806-7.577-5.92zm102.191 119.56c.864-1.563 2.344-.261 3.339-1.196 3.848 3.421 3.528 6.097 8.394 9.696-2.841 1.943-10.537-4.901-11.733-8.5zm20.128 18.21c2.913 5.304 5.636 5.304 8.371 9.733-2.854 2.13-11.734-7.531-8.371-9.733zm20.613 54.7c3.801 1.042 6.548 3.777 8.726 7.068-4.013 1.871-4.013-3.74-8.726-7.068zm8.785 11.615c2.345-.332 5.21 1.776 8.348 5.15-2.381 1.22-7.483-1.1-8.348-5.15zm14.54-8.287c1.516-1.35 3.658 4.795 4.937 6.37-4.215 1.858-4.985-3.896-4.937-6.37zm20.412 11.01c-2.06 2.794-7.696-2.084-8.335-5.15 2.012-1.859 5.28 2.203 8.335 5.15zm-.604 39.901c-2.439-.473-5.162-3.126-5.695-5.577 2.178-2.818 9.614 2.664 5.695 5.577zm1.445-31.565c-1.137-1.421.118-1.385.746-.782 2.297-1.705-3.836-4.937-.462-6.441 2.439 3.007 3.836.994 6.453 4.807-.154 1.172-.32 2.356.805 3.777-2.037 1.883-5.518-3.244-7.542-1.361zm15.984 15.652c-1.942-.639-4.038-1.978-6.441-4.819 1.788-2.972 5.009.947 7.104-.545 1.065 2.025.544 3.754-.663 5.364zm15.415 30.098c4.109.9.545 3.717 6.844 6.689-1.67.912-.509 2.333.805 3.801-4.144-.32-2.048-6.441-7.98-7.826 1.03-.723 1.053-1.646.331-2.664zm116.221 104.83c1.966 1.207 3.457 2.687 4.724 4.25-2.226-2.142-5.742-1.491-4.724-4.25zM907.5 653.198c2.7.367 7.992 3.564 8.715 7.033-2.156 1.255-5.921-5.198-8.715-7.033zm26.095 72.046a857.078 857.078 0 0 0-4.57-4.464c1.965-3.86 8.311 2.356 4.57 4.464zm-2.818-13.249c2.463-.924 7.826 2.676 8.335 5.174-2.332.308-5.209-1.8-8.335-5.174zm25.16 29.138c-5.624-5.778-7.092-12.846-13.331-16.067.083-2.096 1.953-3.895-2.356-6.796 9.804 2.676 16.304 16.742 23.561 21.572-2.901-.911-5.518-.474-7.874 1.291zm22.306-44.139c1.551.177 2.901-.545 4.085-1.989 4.085 2.865.166 4.286 4.227 7.151-2.001 1.847-5.281-2.214-8.312-5.162zm-13.45-50.663c-1.859-2.415 1.811-3.825-2.107-6.619.521.095 1.065.142 1.645.166 1.007 2.309 3.825 4.937.462 6.453zm18.979 17.096c3.469.698 14.232 10.431 8.063 12.396-1.598-5.623-4.641-7.991-8.063-12.396zm4.547 29.943c.722-.781 1.48-1.551 2.214-2.332 7.306 3.671 7.945 8.892 13.344 16.079-6.453-2.629-8.536-9.851-15.558-13.747zm21.738 25.788c-1.835-2.167-1.314-3.884.675-5.34-3.966-2.581-2.392-.095-4.097 1.977-2.972-3.564.498-5.956-2.012-9.448 11.828 7.068 15.06 19.05 28.534 27.93-2.96.769-1.965 1.279-5.577 3.528-2.913-7.695-12.396-19.985-17.523-18.647zm29.659 29.044c-.828-4.286-4.712-4.085-7.992-7.827 3.007-2.901 7.673 2.025 12.089 5.849-1.172 1.516-2.96.272-4.097 1.978zM740.77 717.938c.379 1.019 1.409 2.144 2.072 3.209.261.142.497.249.734.331-1.516-1.278-1.244-2.249-2.806-3.54zm-6.098-5.576c1.267 1.551 2.664 4.665 5.6 5.494-2.179-2.06-3.173-4.061-4.606-5.908-.272.39-.663.236-.994.414zm285.591 177.765c-4.156-5.162-11.213-11.721-15.747-14.622.224-.757-1.433-1.835-.498-2.474-2.403-.9-2.131-3.078-4.227-3.339.343.379.639.746.201.982-.876-.52-.912-.627-2.262-1.811.273-.355.723-.675 0-1.196-2.226.39-3.326-3.232-4.535-4.831-.473.32.012.805.012 1.196-1.255-1.018-3.528-2.972-2.77-4.298.971.521.189 1.894 1.278 1.657-.355-.461.107-.782 0-1.196-4.333-1.966-8.418-6.713-10.324-8.927-.711-.805-1.74-.474-2.072-.829-.864-.935-.734-2.533-2.593-3.753.189.095-.521-.509-1.244-1.196-.296-.273-3.801-2.877-3.741-4.452.367-.639 2.581 1.966 2.06.829-1.124-.971-1.716-1.078-2.356-2.321-.793 1.29-2.368-.652-2.463-1.611 1.231.616 2.593 1.871 3.647 1.575-2.143-1.468-6.429-3.919-4.44-5.529-.201.201-.758-.249-.592-.58 1.693.675 1.646-.237 3.149.296-5.493-1.954-5.802-7.874-11.709-8.667.308-.461.769-.13 1.089-.533-.9-.923-1.468-.189-2.463-1.622.438-.32.095-.782.486-1.113-.841-.675-1.717-1.48-2.463-1.611 1.397 1.196 1.551 2.167 1.089 3.055-1.67-2.237-3.528-2.249-4.334-5.044.983 1.361 1.48.26 2.463 1.622.178-.77 1.149-1.397 0-2.392-.343.261-.616.865-1.089.533 1.089-.734-2.498-4.795-4.132-6.441-1.053.462.178 1.303-.58 1.811-.13-.568-.828-1.243-1.586-1.93 1.101.095.841-.024 1.48-.947-.769-1.113-1.054.284-1.776-.545.793-.746-1.149-1.942-.782-2.759-1.953-.58-1.788-1.516-1.089-1.859-1.67-.532-1.918-1.16-3.339-1.278-.107-.888.272-.237.781-.829-1.468-1.018-1.255-.994-1.871-2.226-.675-.213-1.29-.119-1.965-.331-.131-.935-1.066-1.315.296-.912-2.854-3.587-6.181-2.321-7.282-4.333-1.645 1.326-2.427-.604-3.054-2.19-.853.071.024 1.516-.782.817-.379-1.255-1.125-1.859-2.463-2.806.379-.9 1.078-.177 1.575-.45-.983-.308-1.563-1.61-1.966-1.527.308.533.414 1.03.296 1.48-.698-.687-1.208-.497-1.965-1.527l.58-.616c-3.576-1.326-6.074-5.766-8.063-5.908-1.124-.746-.106-1.137-.592-1.776-.284.272-.296.592-.296.912-1.184-.249-3.137-5.233-2.368-2.321-1.314-1.445-.959-2.664-2.262-3.007.628.734.166 1.231-.58.616.711.119.841-.426-.012-1.196-.615.083-1.349-.45-2.06-.828 1.326.225-1.007-1.705-1.575-1.942.19.272.568.58.391.782-.675-.486-2.676-1.634-2.652-2.593.45-.106 1.16 1.078 1.574.746-.651-1.338-1.586-1.018-2.758-1.906.722-1.67-3.825-1.966-2.664-3.789 1.61 3.102 5.671 1.977 5.517 4.996 1.16-1.113 1.492.557 3.15 1.492.284-.983.935-.047 1.373-.249-1.207-1.504-1.065-.592-1.574-.746-.071-.485-1.03-1.124-.296-1.48.379.308.805.853 1.089.652-1.385-1.018-1.752-1.882-1.48-2.629-2.013-1.042-2.534-2.687-6.11-5.577-.9-.189-.201 1.03-1.373.237-2.937-4.689-8.194-6.322-10.727-9.697-1.196.024-.592 1.716-2.06.367-.462-1.007.154-1.22.876-1.527-3.481-1.847-4.038-4.796-7.187-7.436-2.889.557-5.316-5.115-8.454-5.493 1.646 1.053 3.41 2.77 3.446 4.167-1.823-.343-5.518-3.505-3.742-4.463-2.321-.853-2.19-3.777-3.942-3.055.912-1.622-2.487-4.854-4.819-6.311.343.213-.213-.651-.982-1.361-4.061-3.682-8.572-8.691-13.19-11.319.272-.355.722-.675 0-1.196-.533.498-1.065 1.007-1.871.166.236-.639 1.456.166.296-.912-.616.071-1.504-.296-1.67-1.231-.935-.343-.106.864-.888.32-.521-.556-.852-1.101-.781-1.563.331-.296.9.568 1.172-.036-1.504-.616-1.586-1.053-3.244-1.989-.734.651 1.006.959.391 1.977-8.833-3.635-15.795-11.852-22.828-17.973.177-.841 2.143 1.456 1.48.249-3.386-2.237-4.617-2.214-5.801-5.281-1.089-1.065-1.823-.391-2.759-.71-.557-1.539-4.997-3.114-4.926-5.612-.888.592-1.373-1.504-2.652-1.409.687-.782.024-1.125-.698-1.065 1.006-1.315-1.35-1.871-1.078-3.055-1.149.225-1.836-.746-2.558-2.108-.935-.343-.106.864-.888.332-.983-1.907-4.168-2.948-3.635-5.163-1.741.154-5.375-4.013-5.423-5.695-1.338.947-4.44-2.546-3.931-3.055a31.987 31.987 0 0 1-4.914-2.037c.438-.154.924-.083 1.374-.249-5.233-5.541-10.68-8.619-16.54-16.173-.32.367-.734.296-1.184.035-.509-3.528-7.933-5.352-5.612-7.886-1.492-1.468-.817.592-2.155-.13-3.173-3.517-6.275-5.222-7.281-7.921-2.403-1.244-3.043-2.309-5.813-4.097.367-.557 1.077.616 1.48.249-2.948-2.664-4.937-3.576-6.11-6.761-.817 1.077-2.226-.841-3.137-.296 1.539 1.646 3.528 3.658 3.244 5.564-1.657-.864-1.101-2.545-2.167-2.522 1.563 4.203 4.724 4.274 7.98 7.815-.26.284-.58.308-.888.32.793 1.504 2.593 2.297 3.931 3.055 4.334 6.82 13.391 11.106 17.133 17.961 2.628.769 5.73 3.978 8.655 6.488-1.409.509-3.623-3.078-5.02-2.522 1.255 1.243 6.216 5.233 6.157 6.689.379-.391.77-.675 1.326-.166.947.639.201.995.793 1.563 1.646-.615 5.896 4.807 7.471 6.524-.178-.261-.178-.497.106-.698.166.923 3.232 1.705 3.54 3.469-.616-.711-1.161-1.03-1.575-.746.497 1.93 1.788.177 2.948 1.705-.367.557-1.065-.604-1.468-.26 2.747 2.167 6.748 6.997 9.341 8.761 1.007-.308-.805-1.101.201-1.397.32.533 1.753 1.255 1.279 1.646-.355.225-.817-.13-1.184.035 4.428 4.558 9.235 8.478 14.469 14.161-.177 1.681 4.499 4.026 5.908 5.79 1.859 2.321 5.802 5.233 8.951 7.968 5.02 4.357 9.188 9.804 14.173 12.681-.272.343-.722.675 0 1.196.343-.261.627-.864 1.089-.533 1.22 1.468 1.835 2.854 1.764 4.12.698-.119 1.433 0 2.167.131-.462-.569-2.025-.865-1.764-1.741.639.473 1.089-.06 1.859 1.042-.047 2.487.095.971 1.575 3.137-.485-.509-.9-.592-1.279-.461 1.978.675 2.972 3.812 4.926 4.416-1.219-1.847-1.894-2.108-2.652-3.789 1.669 1.35 1.894 1.847 3.635 2.759-.083.663-1.54-.177-.793.828 2.226.498 2.356 4.985 5.221 5.897-.769-.403-1.314-1.918-.485-1.279.757.687.604 1.219 1.077 1.859 2.487-.296 3.41 3.09 5.506 3.801.473 1.007.154 1.267.106 1.693 1.148-.201 4.085 2.273 4.63 2.936-.474.781-1.504-1.172-2.072-.829 3.102 2.771 4.771 3.031 6.5 3.966.734.604-.249.912.296 1.492.367-1.373 2.794.628 4.416 1.942-.793.628-1.018 1.042-1.468.948-.094-.557-1.29-1.409-1.965-1.539.45 1.231-1.587-.106-2.072.367-.497-.711-.308-.923.296-.9-2.64-1.67-4.843-4.867-7.471-6.536.272-.19.971.059.58-.604-.237 1.172-1.113-.864-1.468-.26.45 1.243-1.527.213-2.167-.119.616.024.793-.201.296-.912-1.882.604-2.096-2.309-3.552-2.273-.391-.971 1.208-.083 0-1.196l-.782.817c-1.16-.935-4.321-3.883-5.209-4.7-.651-.829-.154 1.823-1.373.249 1.089-.734-3.647-2.818-2.569-4.499-3.375-2.013-3.552-4.073-6.785-5.459.213-.461-1.077-2.38-1.871-2.226.628.32.888 1.657.19.983-3.446-5.174-9.815-10.313-13.971-15.262.284.356.237.675.19.983-.391-.391-.782-.769-1.172-1.16.26-.296.568-.308.876-.32-1.516-.497-1.812-3.268-2.842-3.599.604 1.065-.71-.225-.604-.568-.734.367-.497.414-1.67-.047.415.462 1.16.994.994 1.361-3.339-1.634-6.109-6.169-8.667-8.88-1.29-.532.331 1.67-.983 1.03-.201-1.646-3.232-1.244-2.652-2.605.746-.272 3.362 2.64 2.948.509-1.918-.852-4.156-.486-5.115-3.031-1.681 2.273-4.795-2.545-6.985-2.853-.32-1.09-1.693-3.624-3.446-4.168 1.906 2.321 3.28 4.535 2.96 6.477-.379-.308-.817-.864-1.089-.663 1.35 1.966 1.93.119 3.244 1.977.782-.734-1.433-1.989-.781-2.759 2.462 2.203 4.7 4.191 6.003 6.276-.782-1.101-1.054.284-1.776-.533-.095-.45-1.101-2.226-1.575-1.942-1.444.675-5.493-1.847-6.393-4.664-2.001.296-2.581-2.57-2.948-2.901.615.971-.971.521-1.374.249.923-.912-2.368-3.623-1.681-1.243-1.231-1.172-.971-1.93-.687-2.262-1.361-.474-2.747-1.065-4.025-1.16.521-.486 1.172-.095.485-1.113-.983-.427-.58.225-1.184.035-.189-.272-.177-.509.095-.698-2.474.426-2.889-4.191-4.132-4.049.343.379.639.746.201.982-1.255-1.397-2.688-2.841-2.463-3.99-1.326.473-.687-1.338-1.871-2.226-1.716.948-6.855-3.812-5.411-4.51-1.492-.462-2.724-.427-3.351-2.475-1.409.711 1.752 2.202 1.575 3.126-1.326-.308-3.173-3.209-4.523-3.635-.189-1.291-.343-2.214.391-2.795-.923-.639-1.61-.119-2.463-.414.32.368.876.782.699 1.066-1.8-.284-3.765-2.854-2.463-4.002.532.911 1.859.035 1.373-.237-1.255.462-3.019-1.622-4.321-1.456 1.03 1.599 1.468.284 2.451 1.61-.237 1.019-1.09.557-.58 1.812-1.681-1.871-2.557-2.629-4.037-3.552.39-.403 1.053.532 1.373-.237-.888-1.302-1.243.119-1.965-.343-.32-.769-1.054-1.61-.699-2.262-3.516-1.326-4.748-3.658-8.264-6.903-1.279.498 1.764 1.729 1.184 2.356-4.345-2.107-7.577-5.707-11.804-7.98.343-.224.817.131 1.184-.047-2.676-.817-2.972-3.126-4.334-2.64-3.362-5.222-13.604-13.794-16.339-18.779-2.285-2.178-6.453-3.812-6.595-6.855-1.953-.319-3.978-4.002-5.612-4.298.402.497-.272.379-.687.118-3.836-5.446-8.016-5.778-12.799-11.721-.841 1.208 4.073 3.398 2.072 4.416 2.794 3.007 2.995 4.546 5.719 7.175-.391-.308-.805-.853-1.089-.663.189.272.58.58.402.781-1.243-1.444-2.333-2.143-3.256-1.977 2.285 1.895 5.233 4.428 6.406 7.057-1.433.356-4.286-4.416-5.127-4.214 1.468 2.155 2.628 4.262 4.63 6.512-1.575-.284.816.947-.19 1.409-1.823-.758-2.072-1.966-3.15-2.688.415.284.45 1.586-.296.9-.663-1.196-.947-1.007-2.06-2.025.213-.308 1.788.557 1.078-.521-1.645-.616-4.676-1.823-4.523-3.647-.438.331-.107.782-.497 1.113-.699-.734-1.386-1.42-1.966-1.527.19-.201.391-.414.592-.616-2.19-1.338-3.386-1.823-4.913-2.036-.805-1.16-3.954-5.02-5.222-4.701 1.243 1.812 4.357 2.889 4.132 5.233 4.061 3.836 8.371 8.868 11.224 10.988 1.823 1.362 3.564 4.168 5.115 5.411 1.563 1.244 4.227 2.854 4.038 4.748-.486-1.315-2.333-1.622-2.759-3.102-.935-.343-.106.864-.888.331-13.285-15.557-33.294-27.066-48.615-43.618-1.657 1.977-5.505-3.221-6.488-5.162-1.847.402-2.545-2.7-3.742-2.072.284 1.172 2.83 2.723 2.167 3.717-.509.202-.793 1.563-1.468.948-3.943-3.137-4.381-6.843-6.985-7.637 1.882 1.8 1.859 4.783 4.819 7.507-.45-.391-2.025 1.267-.983 1.03 1.042-1.716 1.599 1.101 3.055.995.971 1.042.698 1.871.296 2.676-1.741.024-4.002-2.569-5.801-2.901-.782.912-.107 2.214 1.279 2.842 2.948 6.026 12.455 11.615 16.931 16.978.58.58-.166.924.782 1.563 2.818 2.356 8.169 5.434 9.259 9.448 2.155 1.468 3.433 3.209 5.304 5.21.627-.438 1.421-.047 2.368 1.113-.888-.071-.225.296-.782.828-.852-.675-1.729-1.48-2.463-1.61.095.651 1.551 1.539.391 1.977-1.977-1.953-3.505-1.705-5.411-3.315.485.639-.024 1.113 1.089 1.859 2.38.06 5.388 3.221 7.566 2.25.497.828.071 2.131-.782 2.012 1.231 3.291 5.635 5.636 7.187 8.619-.711.77-1.812-.319-2.652-.213 2.025 2.214-.841.237-1.279.746 2.226.864 4.854 3.718 7.281 5.529 12.42 16.955 31.944 31.222 44.885 46.33 4.712 3.599 9.211 7.898 12.302 10.443 2.593.757 6.583 3.706 7.577 5.825 1.279.355 4.807 3.694 6.689 5.411-.592-.438.486 1.09.391 1.527-2.522-2.38-3.954-4.38-5.505-3.801-.261-.438-.462-.876-.498-1.279.273.177.592.568.794.379-1.657-2.19-.864 1.74-2.558.284.829-1.302-2.262-1.823-.592-2.971 1.03.805.746 1.67 1.67 1.243-2.558-2.688-5.316-4.819-6.891-5.955.32 1.729 3.315 2.782 4.428 4.333.047.569-.426 1.042-.391 1.611 1.078 2.025 3.173 2.759 3.055 4.582-4.712-3.28-2.545-3.825-5.316-6.394.166.154.177.486-.189.201-2.048-1.669-2.593-2.853-4.63-4.132-.379-.959-1.148-4.239-2.664-2.605 1.326.959 2.818 2.285 2.368 3.517 2.167 2.865 5.151 2.711 6.003 5.079-1.338-1.172-2.569-1.788-3.646-1.575 1.148 1.374 1.764.095 2.96 1.693-.356.225-.817-.13-1.184.036 1.752.971 4.629 3.114 4.238 4.546-2.818-2.048-5.115-4.108-7.293-5.541.308-.261.698-.853.106-.699-.13.142-.26.272-.391.403 1.788 3.492 4.606 2.924 5.02 6.109-1.208-1.42-3.055-1.906-3.54-3.457-1.586.616-4.677-2.036-6.003-3.895 2.664 5.458 8.228 6.11 12.1 9.46-.45.994-2.77-1.291-2.261.58 5.197 2.783 8.904 10.064 12.692 13.616-4.203-2.711-7.577-5.411-10.028-8.631-.864-.958.177 1.326-.888.332-1.67-3.091-7.164-7.163-11.319-10.289.402-.177.687 0 .592-.616-3.221-.261-5.482-4.724-7.873-6.11.189.261.58.568.391.782-3.931-4.76-9.815-10.573-15.049-13.545.261-.284.521-.557.782-.829-5.304-3.682-12.929-9.412-17.121-15.569-.379.509-.876.415-1.48-.249-12.089-12.894-28.534-25.054-39.759-37.272.166.249.213.474-.095.639-4.404-6.548-9.661-10.751-14.764-15.641-.343-.935-.071-1.764-.296-2.676-.864.888-.024.888-.794 2.013-1.408-3.15-4.664-6.216-7.577-8.217.202-.201.391-.402.592-.615-2.522-.983-5.126-2.984-6.18-5.127.047.26-.177.461-.414.663-1.693-1.326-3.066-2.487-2.558-3.303-.983-.592-1.918-1.729-1.776-2.925-1.302-.923-.923 1.03-1.764.651-10.301-11.91-25.941-26.687-38.776-38.361 9.839 10.159 19.536 20.519 30.701 30.062-.604.533 2.166 1.646.888 2.06 6.393 4.901 12.206 13.888 18.601 18.21-.178.296-.604.533-.296.912.509-1.018 1.397-.177 2.166.119-.26 1.515 2.759 2.687 3.15 5.079 1.267-.509 3.99 3.942 4.523 4.83.569.024 1.019-.485 1.681.047-.556.924 1.527 1.338 1.468 2.64 1.752-.07 2.77 2.013 4.44 3.138-.947 1.48 1.445 2.593 2.948 4.084.935.343.106-.864.888-.331 7.009 7.921 14.776 14.516 22.235 23.372-.272-.177-.58-.568-.782-.379.758 1.053 1.101 0 1.871 1.042-.568.533.095.9-.793.817 1.811.971 3.197 3.232 4.535 4.831.959-.308.024-.947.201-1.397.627.782.994.249 1.67 1.244-.403.402-1.054-.533-1.374.236 1.113 1.622 1.634.284 2.747 1.907-1.101.805 1.279 1.681 1.575 3.137 1.315-.19 1.445-.083 1.776-.663.616.983 1.078 1.693 1.966 1.527-.201.213-.402.415-.592.616.758.391 3.86 1.895 3.256 3.185-1.054-1.504-3.362-1.646-4.144-4.049-1.468 1.788 6.145 5.375 5.612 7.886-6.785-6.157-11.45-11.39-18.103-18.127-.462.236-.071.959-.592.616-.403-.628-1.966-1.445-1.575-1.942.828-.166.746 1.705 1.575.746-1.397-1.539-4.31-4.12-5.222-4.712.58.604 1.362 2.439-.095 1.895-4.286-6.074-11.284-11.615-15.842-16.304-6.607-6.784-12.929-13.959-19.986-21.549l.402-.402c-3.683-1.752-4.748-5.529-7.98-6.618-.627-.983-1.267-1.966-.781-2.759-.639-.391-1.504-1.942-1.978-1.527 1.374 1.184 1.764 2.202 1.09 3.055-1.729-1.527-5.979-5.92-7.577-8.217-3.493-1.942-7.104-6.773-10.242-8.43 1.125 2.273 6.37 4.748 4.736 7.009-1.409-2.308-4.179-2.308-5.518-4.997-.604.782-1.255.119-2.155-1.326-2.96.296-5.837-5.766-9.259-7.057-.213-1.16-.924-2.392-1.67-3.635-.817.486.793 1.326-.497 1.113.414.628 1.977 1.445 1.575 1.942-6.737-5.873-11.816-9.886-17.511-15.155-1.812 1.953-3.54-2.759-4.926-3.232.427 2.249-2.617-2.214-3.742-3.256-2.734-2.558-6.251-4.843-8.062-5.92.402 2.297 3.339 2.533 4.523 4.831-.545.39-1.137.592-1.859.165.095-.58-1.966-1.966-2.368-1.124 1.894 1.338 2.415 2.462 3.445 4.179-2.297-1.089-5.754-2.048-6.488-5.174-2.155-.343-3.872-2.841-6.689-4.961-.568 1.622-3.019-1.42-4.925-3.22-2.345-.498-1.397 1.338-3.931-.663.367 1.137 1.563 1.113 1.575 1.93-1.504.391-2.996.852-5.008-1.326.343-.225.817.131 1.172-.035-1.645-1.385-3.895-2.558-4.523-2.439-.853-1.835-1.149-.983-2.262-1.823-1.764-1.338-3.457-4.44-5.316-4.002.651 1.527 2.877 2.178 2.167 3.706-1.658-.545-1.409-2.463-2.262-1.812.296 1.397 4.014 3.387 3.055 4.571-.592-.58-1.184-1.149-1.776-1.729-.628.592.983 2.084-.592 1.811.545.308 1.302 1.729 1.681 1.244-.687-.604-.782-1.101-.296-1.492.769.722 2.238 2.428 3.339 3.67-3.268-.793-8.134-5.66-10.419-8.217-.604.154-1.184.462-1.871.166 1.35 1.361 2.699 2.699 1.575.746 1.196.994.923 1.752.983 2.545-3.078-1.113-1.433-1.871-3.54-3.457.912 1.184.995 1.942-.39 1.599 2.226 2.936 5.398 6.677 7.577 8.217-.45 2.534 6.405 5.482 4.724 8.205 1.125 1.244 1.599-.734 2.759.711.639 1.22.888 2.38 1.67 3.623 1.48.154 2.936 2.19 2.569 3.303-.402-.379-.616.095-.994-.166-.474-1.764-3.659-4.499-5.305-5.197 2.119 2.119 4.381 5.268 6.785 6.642-.32-.367-.865-.782-.687-1.078.817.9 1.349.426 2.167 1.326-.249.639-1.457-.166-.296.912.592.177 1.113.012 1.764.545 1.338 2.487 3.978 5.73 6.406 7.057 1.03 4.321 8.844 7.708 6.689 10.928 2.841 1.871 5.339 4.168 6.702 7.341.58.521.852-.473 1.468.249 1.172 3.552 6.524 5.316 8.868 8.678-.971.628-2.771-3.09-2.854-1.207 4.972 3.315 6.808 8.335 10.135 11.52-.557.367-1.48-1.065-1.966-.332.959.841 2.593 3.173 4.132 4.038-.166.379.047.805-.486 1.113 2.652 1.67 3.671 4.404 5.707 7.187.853-.071-.024-1.515.782-.828l1.776 1.74c-.651-.106-1.124.379-.486 1.113 2.854 2.119 5.435 5.707 8.56 7.187-1.622-.107.58.935.687 1.065.036.059-.438.355-.402.415 3.552 5.363 14.551 12.302 15.463 15.522-.047-.959 2.569-.024 2.948 1.705-.32.758-.983-.166-1.373.237 7.494 6.63 14.871 14.788 23.324 22.839-.19-.272-.58-.58-.391-.794 3.647 4.097 4.736 6.299 8.466 9.082 2.617 3.232 8.358 8.406 9.838 10.04-.154-.379-1.278-2.084-.296-1.48 1.883 4.416 4.642 7.068 9.153 11.343-.604 1.302 2.557 4.452 3.54 3.469-.841-1.053-1.539-1.397-2.155-1.326-.107-.651-1.551-1.539-.403-1.977 1.492 1.492 6.418 5.885 3.256 4.381 5.281 3.729 5.222 6.618 9.839 10.028-1.172 2.7 5.932 6.489 4.523 7.211 1.586.568 3.161 2.308 3.457 4.179-3.066-1.977-4.452-4.097-6.5-5.174 1.042.9 1.847 1.753 1.681 2.439 1.954.616 3.173 2.001 3.836 3.765.829-.971 1.314 1.042 1.468 1.433 1.006-.308-.805-1.089.201-1.397 2.261 1.551 4.309 4.156 5.612 6.689-.58-.509-1.113-.829-1.575-.746 1.93 1.315 2.735 4.227 4.227 3.351-.486-.722-2.179-1.645-1.871-2.226 2.474 1.729 3.777 3.493 4.629 5.316-.367-.403-2.107-2.119-1.373-.948 1.184 1.54 2.036 1.48 3.043 2.191 1.551 4.404 4.203 5.991 6.903 9.531 1.113-.343 2.688 1.599 4.132 2.854-.284.272-.296.58-.296.9-.427.628-1.303-.958-1.682-.047 1.149 1.231 4.156 3.517 5.032 6.11 1.149.308 5.163 3.327 4.321 5.032-2.237-1.835-4.274-3.374-5.008-4.901-.995.367-5.719-6.347-6.406-4.677.035-.545.19-1.078-.592-1.764-.734-.095-1.93-.698-3.244-.793 1.551-1.326-2.427-1.042-1.468-2.64-.782-1.113-1.125-.071-1.776-.545-.604-.971-.473-1.835-1.279-2.841-8.217-5.008-14.054-14.303-21.17-20.318 1.302 1.658 3.244 3.422 3.35 4.867-.568-.45-.911-2.025-1.764-1.729.331.686 1.397 1.503 1.374 2.143-1.93-1.219-1.942-3.339-2.854-3.587 1.599 1.764-.817.687-.782.817.237.912 1.67 1.231 1.764 2.924.438-.319.106-.769.497-1.112.545.651.047 1.124.592 1.776 6.11 1.941 10.656 10.147 16.529 13.805-.758 1.302.817 1.764 1.184 1.149 1.03 1.622.817 2.249.888 3.256 2.545-.178 4.689 4.854 7.281 5.541.616 3.007 6.11 5.648 7.968 7.803-.189-.272-.177-.509.107-.699 1.124.935 1.977 1.326 2.155 2.51-1.172-.177-.249-.841-1.279-1.646.722 3.54 5.209 5.719 7.779 9.212.746.142 1.563.687 2.356 1.113 0 1.113 1.823 2.534 3.161 3.883.793-.379 1.681-.296 2.854 1.196-.154-2.901-3.292-5.257-5.423-6.891 1.776.237.284-1.515 1.966-.864-.225 1.788 4.286 5.091 5.837 6.808-.379-.486-.687-.971-.225-1.315.9.864 3.055 1.93 3.244 3.185-1.338-1.599-1.847-.402-2.06-2.025-.059 1.184.142 2.404.983 3.742.829-.414-.781-1.244.391-1.599.296.296.509.177.793.367-.142.971 3.007 3.386 1.374 3.339 2.474 1.776 5.505 5.068 5.221 7.104 4.05 3.031 7.436 5.21 10.633 9.212-.249.355-.829.651-.498 1.113.675-.225 1.527.497 2.262.616-.592.805.817.769.497 1.279-.462-.356-.77.118-1.184.035.758.616 1.101 1.149 1.279 1.657.829-.414-.769-1.255.391-1.61.711.746 1.231.568 1.871 1.042.415 1.871 3.492 2.297 4.83 5.115-.367.189-.793-.024-1.089.532 1.149.994 1.93.106 3.055.994-.355.225-.817-.13-1.184.036 2.901-.047 4.819 5.032 5.707 5.991-.273-.367-.379-1.03.106-.699 4.381 5.068 8.904 8.62 13.284 13.001-.189.26-.734-.095-.39.414 2.166 1.788 14.61 9.519 10.336 10.111.177.272.568.58.391.782-.379-.296-.805-.852-1.078-.651.592 1.207 2.889 2.249 4.227 3.339.036.568-.106 1.101.095 1.693 3.576.71 2.901 4.393 5.707 5.99-.426.628-1.29-.971-1.657-.047 4.641 1.291 8.371 7.732 13.178 11.32-.427.627-1.468-1.812-1.776-.545 3.623 2.439 8.702 8.797 13.094 12.017-1.504-.26.818 1.35.403 1.978-3.919-1.172-5.494-5.127-10.04-7.436-.131.45-1.362.722-.687 1.314 2.782-.971 5.352 3.765 8.453 5.506-.177.438.77 1.078-.189 1.397 3.433 1.066 7.684 5.79 10.537 9.91.58-.012 1.089.32 1.563.805l74.959-.036 76.806-.035a58.323 58.323 0 0 0-3.611-3.706c.296-.261.604-.533.296-.9 1.847 1.042 3.788 2.747 5.659 4.606h9.649c-.32-1.326.356-1.953 2.096-.687-.225.106-.497-.095-.687.119.202.201.403.391.58.568l7.4-.012c-.888-.498-1.93-.876-2.581-2.025.652-.284 1.504.414 2.167.131-.106.545.639 1.231 1.243 1.894h1.966c-.165-.486-.32-.888-.852-.782-.687-1.019-.036-.628.497-1.113-1.8-1.149-3.126-1.966-3.943-3.055-.959.391.616 1.219 1.089 1.859-1.622-.19-3.433-2.51-3.848-3.765.533-.995 2.676.012 1.089-1.717 1.977.556 4.014 5.269 5.506 4.996-1.764-2.687-6.429-5.873-6.406-8.252 4.013 2.178 5.505 5.955 9.164 8.951-.213.213-.426.438-.616.651.888.699 1.8 1.445 2.735 2.226h9.129c-.974-1.12-2.016-2.114-3.579-2.528zm-114.374-123.1c.106.651 1.089 1.456 1.871 2.226-.356.343-.296.746 0 1.196-.474.403-1.16-.284-1.871-1.03.912.083.166-.616 1.078-.533-.462-.64-2.048-1.469-1.078-1.859zm-1.87-1.03c-1.373-.177-1.314-.948-2.072-2.025 1.373.178 1.314.936 2.072 2.025zm-163.368-146.01c.924-.486 1.267.781 1.48 1.456-.533.403-1.409-1.16-1.48-1.456zm49.894 46.459c-.805-.864-1.539-1.409-2.155-1.326-.273-.355.189-.592-.202-.982.486.308 2.025 1.267 3.244 1.989-.307.011-.626.036-.887.319zm24.224 27.292c.331 1.184 1.847 1.444 1.871 2.226-.544.935-3.067-1.942-1.871-2.226zm-106.76-82.643c.616-.604 2.38 1.409 2.557 2.107-1.172.308-2.155-1.622-2.557-2.107zm-23.444 49.041c.723-.983 1.457 1.065 1.966 1.527-.545.557-1.859-.876-1.966-1.527zM525.069 545.359c-.272.201-.284.438-.095.698-.604.261-2.001-1.586-2.072-2.012.403-.403 1.066.521 1.386-.249 1.03.817.686 1.385 1.87 2.226-.283.19-.709-.355-1.089-.663zm17.121 4.831c.273-.201.273-.438.095-.711.687-.13 1.563.675 2.451 1.61-.699.451-1.681-.508-2.546-.899zm24 10.762c-1.018-1.385-1.219-1.148-2.664-2.604.757-.142 3.824 1.752 2.664 2.604zm13.426 52.913c-.414-.509-1.421-1.847-2.072-2.025-.817-1.444 3.233 1.48 2.072 2.025zm8.276 9.295c-1.361-1.657-2.463-1.977-3.647-2.77.142-.675 1.895 1.053 1.184-.036.474-.06 3.375 2.297 2.463 2.806zm91.63 98.449c1.8.06 2.439 1.729 4.428 3.137-1.231-.249-3.659-1.456-4.428-3.137zm27.776 40.303c1.196.071 2.072 2.096 2.948 2.901-.994-.035-2.415-2.155-2.948-2.901zm89.652-2.901c-.497.284-1.361-1.303-1.669-.047-2.037-2.214-3.765-2.996-5.707-4.796 3.22 1.48 4.428 2.629 7.376 4.843zm-31.103-29.647c-1.006.509-1.326-1.019-2.262-1.823.829-.545 1.729 1.077 2.262 1.823zm-18.399-11.248c-.19.201-.391.402-.58.616-.391-.379-.793-.769-1.184-1.16.426-.628 1.053-.273 1.764.544zm-51.658-45.809c3.457.402 6.097 5.612 9.448 8.051-3.114-.604-7.057-5.837-9.448-8.051zm18.979 90.162c-1.042-.734-.876-1.255-1.575-1.942.675-.225 2.629 1.266 1.575 1.942zm7.495 15.297c-.817-.604-1.776-1.966-2.664-3.007.769-.876 2.344 2.226 3.244 1.989.947 1.018-1.208.437-.58 1.018zm-2.084-6.015c.58.758 1.125 1.882 2.072 2.025.497.947-3.481-.971-2.072-2.025zm15.759 14.622c1.67 1.231 3.15 2.51 4.712 4.617-2.001-1.017-3.445-2.746-4.712-4.617zm9.365-61.224c-.948-1.279.568-1.03 1.077-1.729.853.853-.413 1.848-1.077 1.729zm2.167 1.326c-.794-.77-.213-1.315-.403-1.978.272-.189.699.356 1.078.663-.793.344-.083.936-.675 1.315zm10.111 82.678c.368-.982 1.231.58 1.871 1.042-.461.912-1.74-.284-1.871-1.042zm35.638 36.87c.912.095.166-.616 1.078-.532 1.468 2.285 1.953 2.77 3.742 4.463-1.327.106-3.197-2.57-4.82-3.931zm5.222 4.712c.45-1.018 1.906 1.149 1.966 1.527-.628.154-1.836-.71-1.966-1.527zm5.304-76.723c-1.942-1.835-2.569-3.457-4.617-5.316.249 1.078 1.326 2.463 3.244 4.369-5.34-3.114-8.276-5.671-12.597-10.739-.864.971 1.148 2.427.698 3.457-2.711-3.492-6.05-4.321-7.779-6.808.13-.142.26-.272.39-.414.284-.569.794.023 1.279.461.071-1.125-1.681-1.421-1.965-.331-.983-.948-1.8-1.101-2.854-2.404.474-.402 1.172.284 1.871 1.042-.047-1.741-3.161-2.7-5.02-3.73-1.35-.71.486-.864-.296-1.48-1.539-.722-8.003-6.82-8.655-8.868-1.018-.486-1.338-.486-1.575.438-1.184-.911-1.598-1.704-1.184-2.344-2.131-.095-3.137-2.7-4.238-4.547-1.065-.994-.012 1.302-.876.332-.769-.734-.213-.509.095-.699-1.089-1.101-1.741.012-2.948-1.693.734-.272 1.433-.723 2.06-1.563-.675-.616-.959.746-1.48.948-1.445-1.054-.58-1.693-1.468-2.64-.202.616-1.019.828-1.776.651-.876-.19-1.682-.912-1.374-2.143 1.172.829 1.03 1.445 1.374 2.143.461-.545.059-1.184.982-1.03-1.965-.828-1.599-1.42-2.758-3.09-.569.356-1.883.261-1.764 1.847-.639-1.231-1.622-2.51-2.167-3.718.533-.497 1.385.557 2.167 1.326.556.462.284-1.196.391-1.599-.769-.545.047.663-.888.32-.628-.734-.793-1.409-1.871-2.226-.095-.888.284-.237.793-.829-2.451-1.219-2.936 1.042-4.724-1.042-.119.391-.024.793.497 1.279-4.926-1.468-7.353-8.596-11.224-9.78-.497-1.361.236-1.018-1.279-1.657.426-1.527 1.835-.817 3.268-.225-.284-.355-.58-.698-.911-1.042.947-.32.651-.414.686-1.315-1.196-.793-.343 1.954-1.669 1.149.106-1.006-2.842-2.037-3.446-4.168-.486-.331-.367.332-.095.698-.983.047-.486-1.657-1.681-2.438.035.402.249.841.497 1.279-.782.426-.438-.805-1.184-1.149-.177.201.213.509.391.781-.616.438-1.67-1.29-2.356-1.124-.059-.853-.545-2.498-1.871-2.226-2.972-4.712-7.151-8.927-11.117-12.882.19-.201.391-.402.58-.615-3.587-2.013-5.73-4.997-8.655-7.673 3.564.521 6.039 5.174 9.449 8.052 1.87 1.586 4.097 2.167 5.612 4.298-.509 1.065-1.705-1.373-2.368-1.124-.059.474.888.675 1.279 1.657 5.02.852 9.282 7.838 13.782 11.899 3.682 3.327 7.613 5.375 9.933 8.134 0 .391.486.876.012 1.196 1.551.438 2.084 2.297 3.54 3.469-.236 1.065-.841.177.782 1.563-.924-.142-.521.486-.983 1.03-.923-.639-.154-.983-.284-1.48-.734-.106-1.516-.414-2.167-.13-.45-.723-.083-1.29-.403-1.989-.663-.521-1.113 0-1.764-.532-.06 1.255 2.676 2.77 2.558 4.475 2.723 1.054 4.238-.663 6.985 1.681.308-.663-.687-1.539-1.184-2.344 3.161 1.137 4.168 4.487 6.689 4.961.201.58.912 1.267.592 1.764.959.687 3.576 1.634 3.15 2.688.58.521.852-.474 1.48.249.675 3.256 6.476 5.281 7.577 8.217 2.344.509 5.671 4.144 6.595 5.659 3.067-.023 7.898 5.956 9.152 8.963 2.356 2.131 2.629 1.374 4.724 3.433-.58-.687-1.101-2.558-1.681-2.439.781-.711 2.072.782 4.132 2.854-.035-.047-.426-.06-.687-.272 2.724 3.256 10.798 6.832 11.71 12.657-1.184-1.231-2.332-2.178-3.339-2.487 1.007.343 3.41 4.582 5.008 3.718 1.03.817.971 1.444.9 2.072-.568.379-1.113.769-1.977-.343-.581.377 1.456 1.206.295 1.478zm.497.083c.994-.947 2.569.959 4.038 2.368-1.208.829-2.948-1.219-4.038-2.368zm8.668-74.224c-.734-.154-2.001-.497-2.167-1.326.627-.332 1.953.26 2.167 1.326zm-6.501-5.162c.486-.343 1.184.379 1.67.035.379.545-.367.9.793 1.575-.604.544-1.598-.829-2.463-1.61zm4.618 82.465c-.415-.106-.876-.438-1.373-.959 1.006-.995 4.665 4.522 1.373.959zM808.968 698c1.362 1.196 2.854 1.859 4.038 3.552-1.256.391-3.091-2.51-4.038-3.552zm7.388 6.038c-.485.391.959 1.113 1.279 1.646-1.397-.154-1.48-1.16-2.368-2.309 1.03.166 2.119.639 2.759 1.894-.379.498-1.137-.923-1.67-1.231zm16.919 14.575c-.532-1.527-2.617-2.558-3.836-3.753.864.308 4.298 1.871 3.836 3.753zm-3.741-4.451c-1.433.142-1.776-1.552-3.339-2.486 1.243-.735 2.332 2.391 3.339 2.486zm-4.713 167.57c.237-.414.616-.083.876-.331 1.006.888.912 1.586 2.167 2.522-.745.508-2.735-1.255-3.043-2.191zm2.949-165.724c-.177-.746-.734-1.563-1.184-2.344.734-.094 2.51 1.989 2.664 2.593-.355.604-1.243-1.433-1.48-.249zm1.574 1.942c.616-.402 1.918.047 2.072.829-.615.094-1.243.178-2.072-.829zm.687 168.483c.746 1.385 1.468 1.373 2.167 2.522-.758.568-3.055-1.93-2.167-2.522zm2.261-165.594c-.698-.521-.639-.9-.982-1.361.686.284 1.764.249.296-.912 1.326.675 2.983 2.735 4.629 4.132-1.61.474-2.759-3.102-3.943-1.859zm15.558 14.824c-3.516-3.647-6.559-5.517-9.057-9.661 2.652 1.846 5.399 5.115 9.448 8.051.616-1.101-1.61-1.208-1.681-2.427.757-.58 2.012 1.338 3.055 2.19-.131 1.326-1.398.592-1.765 1.847zm7.672 3.93c-.994.166-1.007-.532-2.463-1.61.51-1.018 1.646 1.102 2.463 1.61zm.497 2.475c-.402-.391-.793-.769-1.184-1.16.628-.438 1.433.071 2.262.627-.402-.047-.758.155-1.078.533zm9.638 5.458c-1.042-.734-.533-1.208-1.575-1.942.261-.106 1.752.391 1.374.948.296.284.473-.024.687-.119.687 1.019.035.64-.486 1.113zm1.184 1.161c.355-.012.698-.024.391-.414.379-.497 1.137.935 1.67 1.244-.617.093-1.232.176-2.061-.83zm8.844 5.079c.948-.45 1.137 1.219 2.463 1.622-.508 1.007-1.645-1.113-2.463-1.622zm3.541-.106c1.255-.486 1.966 1.74 3.15 2.676-1.658-.272-2.178-.876-4.227-2.143.746.094 2.628 1.278 1.077-.533zm1.184 3.539c.616-.604 2.392 1.409 2.558 2.108-1.09-.343-1.113-1.125-2.558-2.108zm3.339-5.884c-.012-1.196-1.172-2.581-.498-3.659.924 1.35 1.836 2.7.498 3.659zm2.853 2.404c-.9-1.208-1.871-.935-2.06-2.025.485-1.219 3.244 1.48 2.06 2.025zm.497 6.05c.521-.675 1.741.308 1.871 1.03-.544.071-1.16-.284-1.871-1.03zm6.004 5.079c2.072-.355-1.421-1.172-.498-2.474 1.042 1.35.995 1.03 2.368 2.321.166.828-.924 1.432-1.87.153zm5.41 4.511c-.095-.817-2.06-1.953-.983-2.557-1.125.319-1.953-1.823-2.948-2.901 1.835 2.072 4.263 2.759 5.411 4.511-.391.841-1.089.107-1.48.947zm20.767 19.524c1.385-.024 1.764 1.93 3.15 1.492 1.373 1.622 1.515 2.629 3.244 3.185-.32.343-.651.687-.983 1.03-1.361-1.859-3.942-3.433-5.411-5.707zm4.038 9.52c.308-.261.615-.521.308-.9.568-.592 2.131 1.149 2.262 1.823-.723.379-1.587.012-2.57-.923zm4.629 5.328c-.793-1.09-1.681-2.191-2.06-3.221.912-.545 1.137 1.196 2.558 2.119-.391.332-.06.782-.498 1.102zm4.914-1.551c.202-.201.391-.414.592-.616.498.485.983.971 1.48 1.444-.485.734-1.373-.509-2.072-.828zm-2.06-2.025c-2.155-2.735-4.464-4.357-5.222-5.896 1.953-.083 4.239 2.321 4.63 4.132 2.048.142 3.824.497 5.209 3.505-1.314-.154-2.664-2.937-4.617-1.741zm3.528-2.499c.474-.414 1.338 1.137 1.977 1.527-1.065-.177-.355.521.486 1.279-1.149.474-1.693-1.894-2.463-2.806zm10.727 9.709c-.177.284.379.698.698 1.065-.083.663-1.551-.177-.793.829-.592.035-.557-1.836-.497-2.475 1.124.959 1.267.142 1.977 1.527-.355.191-.911-.555-1.385-.946zm12.515 22.189c.486.639 1.196 1.314.592 1.764-.391-.379-.782-.769-1.172-1.149.189-.213.379-.414.58-.615zm-2.652-1.41c.758.687 1.456 1.362 1.574 1.942-.532.486-1.373-.568-2.166-1.326.201-.201.39-.414.592-.616zm-5.624-13.852c-.012.391.473.876 0 1.196-.142-.39-.284-.769-.58-.58-.284-.367.177-.604-.213-.994.32-.012.639-.036.9-.32.26.402.39 1.089-.107.698zm2.072.828c-.58.971-.568 1.089-1.682 1.149-.035-.864.427-2.32 1.682-1.149zm-1.658 11.9c3.173 1.208 8.217 6.879 10.715 8.513-2.095.426-7.506-5.719-10.715-8.513zm12.977 3.161c-.356.19-.9-.557-1.374-.948.296-.272.604-.532.284-.911.284-.178.414.177.296.296 1.931.059-.295.77.794 1.563zm.402 7.945c.734-.651 1.989 1.219 2.948 1.693-1.29.568-1.622-1.173-2.948-1.693zm33.863 39.912c-.391.331-.047.793-.486 1.113-1.374-.947-.308-1.48-1.67-2.427.616-.059 1.457.994 2.156 1.314zm-16.032-6.547c.663-.249 1.729 1.539 2.557 2.107-1.491.486-1.409-.853-2.557-2.107zm4.44 7.921c.852-.948.805.959 1.965 1.527-.899.106-1.373-.628-1.965-1.527zm10.727 10.904c.545-.533 1.61-.331 1.764.532-.426.64-1.124-.07-1.764-.532zm-.509-9.638c-.035.545.675 1.22 1.089 1.847-.485.793-1.504-1.172-2.072-.828-.331-.45.249-.758.497-1.101-3.066-2.605-3.386-2.711-6.595-5.66.355-1.172-1.504-1.48-1.279-2.853-.983-.604.45 1.338-.793.828-1.906-2.202-1.172-2.557-3.742-4.464-.604.545 2.179 1.646.888 2.06-1.053-1.657-2.297-2.522-3.741-3.256.367-.568.805-.746 1.278-.746-.71-.818-1.243-.663-1.669-.036-1.705-1.255-1.456-2.167-1.575-3.137 3.031.012 6.832 6.784 9.839 7.636 3.019 3.966 6.322 6.926 9.744 10.739.32-.426-.876-1.101-.782-1.563.652-.604 2.179 1.362 1.575 1.93 1.231.402 1.445.296 1.966-.853 1.067 3.791-1.455 3.068-4.628-.543zm8.371 8.584c-1.847-.071-2.699-2.498-4.819-3.931.557-.391 1.196-.308 1.67-1.149 1.48 1.765 1.752 2.902 3.149 5.08zm7.53 3.387h.284c-.13-.047-.213-.047-.284 0zm-182.027-2.013c.711.793-.746-.047-.782.817.782.296 1.326.782 1.836 1.279h1.385c-.971-.983-1.859-1.99-2.439-2.096zm-52.818-231.175c-.154.154-.296.331-.45.486.308-.084.438-.249.45-.486zm-35.863 58.477c.379 1.019 1.409 2.144 2.072 3.209.261.142.497.249.734.331-1.516-1.278-1.244-2.249-2.806-3.54zm-6.098-5.576c1.267 1.551 2.664 4.665 5.6 5.494-2.179-2.06-3.173-4.061-4.606-5.908-.272.39-.663.236-.994.414z"/></g></svg></g></svg>